<svg xmlns="http://www.w3.org/2000/svg" viewBox="-85.8 -11.1 186 115.5"><path d="M-2.8 -2.4L96.3 54.8L17.3 100.4L-81.8 43.2Z" fill="#0b1219" fill-opacity=".22"/><path d="M-72.7 42L17.3 94L17.3 89L-72.7 37Z" fill="#6e4430" stroke="#1b2229" stroke-width="1.6" stroke-linejoin="round"/><path d="M90.1 52L17.3 94L17.3 89L90.1 47Z" fill="#4a2e22" stroke="#1b2229" stroke-width="1.6" stroke-linejoin="round"/><path d="M0 -5L90.1 47L17.3 89L-72.7 37Z" fill="#5b8a55" stroke="#1b2229" stroke-width="1.6" stroke-linejoin="round"/><path d="M-27.7 17L8.7 38L8.7 35L-27.7 14Z" fill="#6e4430" stroke="#1b2229" stroke-width="1.6" stroke-linejoin="round"/><path d="M36.4 22L8.7 38L8.7 35L36.4 19Z" fill="#4a2e22" stroke="#1b2229" stroke-width="1.6" stroke-linejoin="round"/><path d="M0 -2L36.4 19L8.7 35L-27.7 14Z" fill="#5d4731" stroke="#1b2229" stroke-width="1.6" stroke-linejoin="round"/><path d="M-1.7 2L29.4 20" stroke="#3e2d1f" stroke-width="2.2" stroke-linecap="round"/><path d="M0.9 3.5q-5 -3 -5 -8q4 1 5 6q1 -6 5 -7q0 5 -5 9z" fill="#8fd9c8" stroke="#2f4f3a" stroke-width=".9"/><circle cx="0.9" cy="-5.5" r="1.6" fill="#d4f5ec"/><path d="M7.4 7.3q-5 -3 -5 -8q4 1 5 6q1 -6 5 -7q0 5 -5 9z" fill="#86b36e" stroke="#2f4f3a" stroke-width=".9"/><path d="M13.9 11q-5 -3 -5 -8q4 1 5 6q1 -6 5 -7q0 5 -5 9z" fill="#86b36e" stroke="#2f4f3a" stroke-width=".9"/><path d="M20.4 14.8q-5 -3 -5 -8q4 1 5 6q1 -6 5 -7q0 5 -5 9z" fill="#8fd9c8" stroke="#2f4f3a" stroke-width=".9"/><circle cx="20.4" cy="5.8" r="1.6" fill="#d4f5ec"/><path d="M26.8 18.5q-5 -3 -5 -8q4 1 5 6q1 -6 5 -7q0 5 -5 9z" fill="#86b36e" stroke="#2f4f3a" stroke-width=".9"/><path d="M-8.2 5.8L22.9 23.8" stroke="#3e2d1f" stroke-width="2.2" stroke-linecap="round"/><path d="M-5.6 7.3q-5 -3 -5 -8q4 1 5 6q1 -6 5 -7q0 5 -5 9z" fill="#86b36e" stroke="#2f4f3a" stroke-width=".9"/><path d="M0.9 11q-5 -3 -5 -8q4 1 5 6q1 -6 5 -7q0 5 -5 9z" fill="#86b36e" stroke="#2f4f3a" stroke-width=".9"/><path d="M7.4 14.8q-5 -3 -5 -8q4 1 5 6q1 -6 5 -7q0 5 -5 9z" fill="#8fd9c8" stroke="#2f4f3a" stroke-width=".9"/><circle cx="7.4" cy="5.8" r="1.6" fill="#d4f5ec"/><path d="M13.9 18.5q-5 -3 -5 -8q4 1 5 6q1 -6 5 -7q0 5 -5 9z" fill="#86b36e" stroke="#2f4f3a" stroke-width=".9"/><path d="M20.4 22.3q-5 -3 -5 -8q4 1 5 6q1 -6 5 -7q0 5 -5 9z" fill="#86b36e" stroke="#2f4f3a" stroke-width=".9"/><path d="M-14.7 9.5L16.5 27.5" stroke="#3e2d1f" stroke-width="2.2" stroke-linecap="round"/><path d="M-12.1 11q-5 -3 -5 -8q4 1 5 6q1 -6 5 -7q0 5 -5 9z" fill="#86b36e" stroke="#2f4f3a" stroke-width=".9"/><path d="M-5.6 14.8q-5 -3 -5 -8q4 1 5 6q1 -6 5 -7q0 5 -5 9z" fill="#8fd9c8" stroke="#2f4f3a" stroke-width=".9"/><circle cx="-5.6" cy="5.8" r="1.6" fill="#d4f5ec"/><path d="M0.9 18.5q-5 -3 -5 -8q4 1 5 6q1 -6 5 -7q0 5 -5 9z" fill="#86b36e" stroke="#2f4f3a" stroke-width=".9"/><path d="M7.4 22.3q-5 -3 -5 -8q4 1 5 6q1 -6 5 -7q0 5 -5 9z" fill="#86b36e" stroke="#2f4f3a" stroke-width=".9"/><path d="M13.9 26q-5 -3 -5 -8q4 1 5 6q1 -6 5 -7q0 5 -5 9z" fill="#8fd9c8" stroke="#2f4f3a" stroke-width=".9"/><circle cx="13.9" cy="17" r="1.6" fill="#d4f5ec"/><path d="M-21.2 13.3L10 31.3" stroke="#3e2d1f" stroke-width="2.2" stroke-linecap="round"/><path d="M-18.6 14.8q-5 -3 -5 -8q4 1 5 6q1 -6 5 -7q0 5 -5 9z" fill="#8fd9c8" stroke="#2f4f3a" stroke-width=".9"/><circle cx="-18.6" cy="5.8" r="1.6" fill="#d4f5ec"/><path d="M-12.1 18.5q-5 -3 -5 -8q4 1 5 6q1 -6 5 -7q0 5 -5 9z" fill="#86b36e" stroke="#2f4f3a" stroke-width=".9"/><path d="M-5.6 22.3q-5 -3 -5 -8q4 1 5 6q1 -6 5 -7q0 5 -5 9z" fill="#86b36e" stroke="#2f4f3a" stroke-width=".9"/><path d="M0.9 26q-5 -3 -5 -8q4 1 5 6q1 -6 5 -7q0 5 -5 9z" fill="#8fd9c8" stroke="#2f4f3a" stroke-width=".9"/><circle cx="0.9" cy="17" r="1.6" fill="#d4f5ec"/><path d="M7.4 29.8q-5 -3 -5 -8q4 1 5 6q1 -6 5 -7q0 5 -5 9z" fill="#86b36e" stroke="#2f4f3a" stroke-width=".9"/><path d="M15.6 42L52 63L52 60L15.6 39Z" fill="#6e4430" stroke="#1b2229" stroke-width="1.6" stroke-linejoin="round"/><path d="M79.7 47L52 63L52 60L79.7 44Z" fill="#4a2e22" stroke="#1b2229" stroke-width="1.6" stroke-linejoin="round"/><path d="M43.3 23L79.7 44L52 60L15.6 39Z" fill="#6b5236" stroke="#1b2229" stroke-width="1.6" stroke-linejoin="round"/><path d="M41.6 27L72.7 45" stroke="#3e2d1f" stroke-width="2.2" stroke-linecap="round"/><path d="M44.2 28.5q-5 -3 -5 -8q4 1 5 6q1 -6 5 -7q0 5 -5 9z" fill="#86b36e" stroke="#2f4f3a" stroke-width=".9"/><path d="M50.7 32.3q-5 -3 -5 -8q4 1 5 6q1 -6 5 -7q0 5 -5 9z" fill="#86b36e" stroke="#2f4f3a" stroke-width=".9"/><path d="M57.2 36q-5 -3 -5 -8q4 1 5 6q1 -6 5 -7q0 5 -5 9z" fill="#8fd9c8" stroke="#2f4f3a" stroke-width=".9"/><circle cx="57.2" cy="27" r="1.6" fill="#d4f5ec"/><path d="M63.7 39.8q-5 -3 -5 -8q4 1 5 6q1 -6 5 -7q0 5 -5 9z" fill="#86b36e" stroke="#2f4f3a" stroke-width=".9"/><path d="M70.1 43.5q-5 -3 -5 -8q4 1 5 6q1 -6 5 -7q0 5 -5 9z" fill="#86b36e" stroke="#2f4f3a" stroke-width=".9"/><path d="M35.1 30.8L66.2 48.8" stroke="#3e2d1f" stroke-width="2.2" stroke-linecap="round"/><path d="M37.7 32.3q-5 -3 -5 -8q4 1 5 6q1 -6 5 -7q0 5 -5 9z" fill="#86b36e" stroke="#2f4f3a" stroke-width=".9"/><path d="M44.2 36q-5 -3 -5 -8q4 1 5 6q1 -6 5 -7q0 5 -5 9z" fill="#8fd9c8" stroke="#2f4f3a" stroke-width=".9"/><circle cx="44.2" cy="27" r="1.6" fill="#d4f5ec"/><path d="M50.7 39.8q-5 -3 -5 -8q4 1 5 6q1 -6 5 -7q0 5 -5 9z" fill="#86b36e" stroke="#2f4f3a" stroke-width=".9"/><path d="M57.2 43.5q-5 -3 -5 -8q4 1 5 6q1 -6 5 -7q0 5 -5 9z" fill="#86b36e" stroke="#2f4f3a" stroke-width=".9"/><path d="M63.7 47.3q-5 -3 -5 -8q4 1 5 6q1 -6 5 -7q0 5 -5 9z" fill="#8fd9c8" stroke="#2f4f3a" stroke-width=".9"/><circle cx="63.7" cy="38.3" r="1.6" fill="#d4f5ec"/><path d="M28.6 34.5L59.8 52.5" stroke="#3e2d1f" stroke-width="2.2" stroke-linecap="round"/><path d="M31.2 36q-5 -3 -5 -8q4 1 5 6q1 -6 5 -7q0 5 -5 9z" fill="#8fd9c8" stroke="#2f4f3a" stroke-width=".9"/><circle cx="31.2" cy="27" r="1.6" fill="#d4f5ec"/><path d="M37.7 39.8q-5 -3 -5 -8q4 1 5 6q1 -6 5 -7q0 5 -5 9z" fill="#86b36e" stroke="#2f4f3a" stroke-width=".9"/><path d="M44.2 43.5q-5 -3 -5 -8q4 1 5 6q1 -6 5 -7q0 5 -5 9z" fill="#86b36e" stroke="#2f4f3a" stroke-width=".9"/><path d="M50.7 47.3q-5 -3 -5 -8q4 1 5 6q1 -6 5 -7q0 5 -5 9z" fill="#8fd9c8" stroke="#2f4f3a" stroke-width=".9"/><circle cx="50.7" cy="38.3" r="1.6" fill="#d4f5ec"/><path d="M57.2 51q-5 -3 -5 -8q4 1 5 6q1 -6 5 -7q0 5 -5 9z" fill="#86b36e" stroke="#2f4f3a" stroke-width=".9"/><path d="M22.1 38.3L53.3 56.3" stroke="#3e2d1f" stroke-width="2.2" stroke-linecap="round"/><path d="M24.7 39.8q-5 -3 -5 -8q4 1 5 6q1 -6 5 -7q0 5 -5 9z" fill="#86b36e" stroke="#2f4f3a" stroke-width=".9"/><path d="M31.2 43.5q-5 -3 -5 -8q4 1 5 6q1 -6 5 -7q0 5 -5 9z" fill="#86b36e" stroke="#2f4f3a" stroke-width=".9"/><path d="M37.7 47.3q-5 -3 -5 -8q4 1 5 6q1 -6 5 -7q0 5 -5 9z" fill="#8fd9c8" stroke="#2f4f3a" stroke-width=".9"/><circle cx="37.7" cy="38.3" r="1.6" fill="#d4f5ec"/><path d="M44.2 51q-5 -3 -5 -8q4 1 5 6q1 -6 5 -7q0 5 -5 9z" fill="#86b36e" stroke="#2f4f3a" stroke-width=".9"/><path d="M50.7 54.8q-5 -3 -5 -8q4 1 5 6q1 -6 5 -7q0 5 -5 9z" fill="#86b36e" stroke="#2f4f3a" stroke-width=".9"/><path d="M-62.4 37L-26 58L-26 55L-62.4 34Z" fill="#6e4430" stroke="#1b2229" stroke-width="1.6" stroke-linejoin="round"/><path d="M1.7 42L-26 58L-26 55L1.7 39Z" fill="#4a2e22" stroke="#1b2229" stroke-width="1.6" stroke-linejoin="round"/><path d="M-34.6 18L1.7 39L-26 55L-62.4 34Z" fill="#5d4731" stroke="#1b2229" stroke-width="1.6" stroke-linejoin="round"/><path d="M-36.4 22L-5.2 40" stroke="#3e2d1f" stroke-width="2.2" stroke-linecap="round"/><path d="M-33.8 23.5q-5 -3 -5 -8q4 1 5 6q1 -6 5 -7q0 5 -5 9z" fill="#86b36e" stroke="#2f4f3a" stroke-width=".9"/><path d="M-27.3 27.3q-5 -3 -5 -8q4 1 5 6q1 -6 5 -7q0 5 -5 9z" fill="#8fd9c8" stroke="#2f4f3a" stroke-width=".9"/><circle cx="-27.3" cy="18.3" r="1.6" fill="#d4f5ec"/><path d="M-20.8 31q-5 -3 -5 -8q4 1 5 6q1 -6 5 -7q0 5 -5 9z" fill="#86b36e" stroke="#2f4f3a" stroke-width=".9"/><path d="M-14.3 34.8q-5 -3 -5 -8q4 1 5 6q1 -6 5 -7q0 5 -5 9z" fill="#86b36e" stroke="#2f4f3a" stroke-width=".9"/><path d="M-7.8 38.5q-5 -3 -5 -8q4 1 5 6q1 -6 5 -7q0 5 -5 9z" fill="#8fd9c8" stroke="#2f4f3a" stroke-width=".9"/><circle cx="-7.8" cy="29.5" r="1.6" fill="#d4f5ec"/><path d="M-42.9 25.8L-11.7 43.8" stroke="#3e2d1f" stroke-width="2.2" stroke-linecap="round"/><path d="M-40.3 27.3q-5 -3 -5 -8q4 1 5 6q1 -6 5 -7q0 5 -5 9z" fill="#8fd9c8" stroke="#2f4f3a" stroke-width=".9"/><circle cx="-40.3" cy="18.3" r="1.6" fill="#d4f5ec"/><path d="M-33.8 31q-5 -3 -5 -8q4 1 5 6q1 -6 5 -7q0 5 -5 9z" fill="#86b36e" stroke="#2f4f3a" stroke-width=".9"/><path d="M-27.3 34.8q-5 -3 -5 -8q4 1 5 6q1 -6 5 -7q0 5 -5 9z" fill="#86b36e" stroke="#2f4f3a" stroke-width=".9"/><path d="M-20.8 38.5q-5 -3 -5 -8q4 1 5 6q1 -6 5 -7q0 5 -5 9z" fill="#8fd9c8" stroke="#2f4f3a" stroke-width=".9"/><circle cx="-20.8" cy="29.5" r="1.6" fill="#d4f5ec"/><path d="M-14.3 42.3q-5 -3 -5 -8q4 1 5 6q1 -6 5 -7q0 5 -5 9z" fill="#86b36e" stroke="#2f4f3a" stroke-width=".9"/><path d="M-49.4 29.5L-18.2 47.5" stroke="#3e2d1f" stroke-width="2.2" stroke-linecap="round"/><path d="M-46.8 31q-5 -3 -5 -8q4 1 5 6q1 -6 5 -7q0 5 -5 9z" fill="#86b36e" stroke="#2f4f3a" stroke-width=".9"/><path d="M-40.3 34.8q-5 -3 -5 -8q4 1 5 6q1 -6 5 -7q0 5 -5 9z" fill="#86b36e" stroke="#2f4f3a" stroke-width=".9"/><path d="M-33.8 38.5q-5 -3 -5 -8q4 1 5 6q1 -6 5 -7q0 5 -5 9z" fill="#8fd9c8" stroke="#2f4f3a" stroke-width=".9"/><circle cx="-33.8" cy="29.5" r="1.6" fill="#d4f5ec"/><path d="M-27.3 42.3q-5 -3 -5 -8q4 1 5 6q1 -6 5 -7q0 5 -5 9z" fill="#86b36e" stroke="#2f4f3a" stroke-width=".9"/><path d="M-20.8 46q-5 -3 -5 -8q4 1 5 6q1 -6 5 -7q0 5 -5 9z" fill="#86b36e" stroke="#2f4f3a" stroke-width=".9"/><path d="M-55.9 33.3L-24.7 51.3" stroke="#3e2d1f" stroke-width="2.2" stroke-linecap="round"/><path d="M-53.3 34.8q-5 -3 -5 -8q4 1 5 6q1 -6 5 -7q0 5 -5 9z" fill="#86b36e" stroke="#2f4f3a" stroke-width=".9"/><path d="M-46.8 38.5q-5 -3 -5 -8q4 1 5 6q1 -6 5 -7q0 5 -5 9z" fill="#8fd9c8" stroke="#2f4f3a" stroke-width=".9"/><circle cx="-46.8" cy="29.5" r="1.6" fill="#d4f5ec"/><path d="M-40.3 42.3q-5 -3 -5 -8q4 1 5 6q1 -6 5 -7q0 5 -5 9z" fill="#86b36e" stroke="#2f4f3a" stroke-width=".9"/><path d="M-33.8 46q-5 -3 -5 -8q4 1 5 6q1 -6 5 -7q0 5 -5 9z" fill="#86b36e" stroke="#2f4f3a" stroke-width=".9"/><path d="M-27.3 49.8q-5 -3 -5 -8q4 1 5 6q1 -6 5 -7q0 5 -5 9z" fill="#8fd9c8" stroke="#2f4f3a" stroke-width=".9"/><circle cx="-27.3" cy="40.8" r="1.6" fill="#d4f5ec"/><path d="M-19.1 62L17.3 83L17.3 80L-19.1 59Z" fill="#6e4430" stroke="#1b2229" stroke-width="1.6" stroke-linejoin="round"/><path d="M45 67L17.3 83L17.3 80L45 64Z" fill="#4a2e22" stroke="#1b2229" stroke-width="1.6" stroke-linejoin="round"/><path d="M8.7 43L45 64L17.3 80L-19.1 59Z" fill="#6b5236" stroke="#1b2229" stroke-width="1.6" stroke-linejoin="round"/><path d="M6.9 47L38.1 65" stroke="#3e2d1f" stroke-width="2.2" stroke-linecap="round"/><path d="M9.5 48.5q-5 -3 -5 -8q4 1 5 6q1 -6 5 -7q0 5 -5 9z" fill="#8fd9c8" stroke="#2f4f3a" stroke-width=".9"/><circle cx="9.5" cy="39.5" r="1.6" fill="#d4f5ec"/><path d="M16 52.3q-5 -3 -5 -8q4 1 5 6q1 -6 5 -7q0 5 -5 9z" fill="#86b36e" stroke="#2f4f3a" stroke-width=".9"/><path d="M22.5 56q-5 -3 -5 -8q4 1 5 6q1 -6 5 -7q0 5 -5 9z" fill="#86b36e" stroke="#2f4f3a" stroke-width=".9"/><path d="M29 59.8q-5 -3 -5 -8q4 1 5 6q1 -6 5 -7q0 5 -5 9z" fill="#8fd9c8" stroke="#2f4f3a" stroke-width=".9"/><circle cx="29" cy="50.8" r="1.6" fill="#d4f5ec"/><path d="M35.5 63.5q-5 -3 -5 -8q4 1 5 6q1 -6 5 -7q0 5 -5 9z" fill="#86b36e" stroke="#2f4f3a" stroke-width=".9"/><path d="M0.4 50.8L31.6 68.8" stroke="#3e2d1f" stroke-width="2.2" stroke-linecap="round"/><path d="M3 52.3q-5 -3 -5 -8q4 1 5 6q1 -6 5 -7q0 5 -5 9z" fill="#86b36e" stroke="#2f4f3a" stroke-width=".9"/><path d="M9.5 56q-5 -3 -5 -8q4 1 5 6q1 -6 5 -7q0 5 -5 9z" fill="#86b36e" stroke="#2f4f3a" stroke-width=".9"/><path d="M16 59.8q-5 -3 -5 -8q4 1 5 6q1 -6 5 -7q0 5 -5 9z" fill="#8fd9c8" stroke="#2f4f3a" stroke-width=".9"/><circle cx="16" cy="50.8" r="1.6" fill="#d4f5ec"/><path d="M22.5 63.5q-5 -3 -5 -8q4 1 5 6q1 -6 5 -7q0 5 -5 9z" fill="#86b36e" stroke="#2f4f3a" stroke-width=".9"/><path d="M29 67.3q-5 -3 -5 -8q4 1 5 6q1 -6 5 -7q0 5 -5 9z" fill="#86b36e" stroke="#2f4f3a" stroke-width=".9"/><path d="M-6.1 54.5L25.1 72.5" stroke="#3e2d1f" stroke-width="2.2" stroke-linecap="round"/><path d="M-3.5 56q-5 -3 -5 -8q4 1 5 6q1 -6 5 -7q0 5 -5 9z" fill="#86b36e" stroke="#2f4f3a" stroke-width=".9"/><path d="M3 59.8q-5 -3 -5 -8q4 1 5 6q1 -6 5 -7q0 5 -5 9z" fill="#8fd9c8" stroke="#2f4f3a" stroke-width=".9"/><circle cx="3" cy="50.8" r="1.6" fill="#d4f5ec"/><path d="M9.5 63.5q-5 -3 -5 -8q4 1 5 6q1 -6 5 -7q0 5 -5 9z" fill="#86b36e" stroke="#2f4f3a" stroke-width=".9"/><path d="M16 67.3q-5 -3 -5 -8q4 1 5 6q1 -6 5 -7q0 5 -5 9z" fill="#86b36e" stroke="#2f4f3a" stroke-width=".9"/><path d="M22.5 71q-5 -3 -5 -8q4 1 5 6q1 -6 5 -7q0 5 -5 9z" fill="#8fd9c8" stroke="#2f4f3a" stroke-width=".9"/><circle cx="22.5" cy="62" r="1.6" fill="#d4f5ec"/><path d="M-12.6 58.3L18.6 76.3" stroke="#3e2d1f" stroke-width="2.2" stroke-linecap="round"/><path d="M-10 59.8q-5 -3 -5 -8q4 1 5 6q1 -6 5 -7q0 5 -5 9z" fill="#8fd9c8" stroke="#2f4f3a" stroke-width=".9"/><circle cx="-10" cy="50.8" r="1.6" fill="#d4f5ec"/><path d="M-3.5 63.5q-5 -3 -5 -8q4 1 5 6q1 -6 5 -7q0 5 -5 9z" fill="#86b36e" stroke="#2f4f3a" stroke-width=".9"/><path d="M3 67.3q-5 -3 -5 -8q4 1 5 6q1 -6 5 -7q0 5 -5 9z" fill="#86b36e" stroke="#2f4f3a" stroke-width=".9"/><path d="M9.5 71q-5 -3 -5 -8q4 1 5 6q1 -6 5 -7q0 5 -5 9z" fill="#8fd9c8" stroke="#2f4f3a" stroke-width=".9"/><circle cx="9.5" cy="62" r="1.6" fill="#d4f5ec"/><path d="M16 74.8q-5 -3 -5 -8q4 1 5 6q1 -6 5 -7q0 5 -5 9z" fill="#86b36e" stroke="#2f4f3a" stroke-width=".9"/><path d="M18.6 67.3L20.8 68.5L20.8 52.5L18.6 51.3Z" fill="#96603f" stroke="#1b2229" stroke-width="1.6" stroke-linejoin="round"/><path d="M22.9 67.3L20.8 68.5L20.8 52.5L22.9 51.3Z" fill="#6e4430" stroke="#1b2229" stroke-width="1.6" stroke-linejoin="round"/><path d="M20.8 50L22.9 51.3L20.8 52.5L18.6 51.3Z" fill="#96603f" stroke="#1b2229" stroke-width="1.6" stroke-linejoin="round"/><path d="M30.7 74.3L32.9 75.5L32.9 59.5L30.7 58.3Z" fill="#96603f" stroke="#1b2229" stroke-width="1.6" stroke-linejoin="round"/><path d="M35.1 74.3L32.9 75.5L32.9 59.5L35.1 58.3Z" fill="#6e4430" stroke="#1b2229" stroke-width="1.6" stroke-linejoin="round"/><path d="M32.9 57L35.1 58.3L32.9 59.5L30.7 58.3Z" fill="#96603f" stroke="#1b2229" stroke-width="1.6" stroke-linejoin="round"/><path d="M6.5 74.3L8.7 75.5L8.7 59.5L6.5 58.3Z" fill="#96603f" stroke="#1b2229" stroke-width="1.6" stroke-linejoin="round"/><path d="M10.8 74.3L8.7 75.5L8.7 59.5L10.8 58.3Z" fill="#6e4430" stroke="#1b2229" stroke-width="1.6" stroke-linejoin="round"/><path d="M8.7 57L10.8 58.3L8.7 59.5L6.5 58.3Z" fill="#96603f" stroke="#1b2229" stroke-width="1.6" stroke-linejoin="round"/><path d="M18.6 81.3L20.8 82.5L20.8 66.5L18.6 65.3Z" fill="#96603f" stroke="#1b2229" stroke-width="1.6" stroke-linejoin="round"/><path d="M22.9 81.3L20.8 82.5L20.8 66.5L22.9 65.3Z" fill="#6e4430" stroke="#1b2229" stroke-width="1.6" stroke-linejoin="round"/><path d="M20.8 64L22.9 65.3L20.8 66.5L18.6 65.3Z" fill="#96603f" stroke="#1b2229" stroke-width="1.6" stroke-linejoin="round"/><path d="M43.3 55Q32 56.6 20.8 42L20.8 44L20.8 44Z" fill="#8a744a" stroke="#1b2229" stroke-width="1.6" stroke-linejoin="round"/><path d="M20.8 42Q9.5 56.6 -1.7 55L20.8 44Z" fill="#8a744a" stroke="#1b2229" stroke-width="1.6" stroke-linejoin="round"/><path d="M-1.7 55Q9.5 69.6 20.8 68L20.8 44L20.8 44Z" fill="#c9b996" stroke="#1b2229" stroke-width="1.6" stroke-linejoin="round"/><path d="M20.8 68Q32 69.6 43.3 55L20.8 44Z" fill="#a8905f" stroke="#1b2229" stroke-width="1.6" stroke-linejoin="round"/><path d="M2.8 59.4L20.8 44" stroke="#1b2229" stroke-opacity=".28" stroke-width="1"/><path d="M7.3 62L20.8 44" stroke="#1b2229" stroke-opacity=".28" stroke-width="1"/><path d="M11.8 64.6L20.8 44" stroke="#1b2229" stroke-opacity=".28" stroke-width="1"/><path d="M16.3 67.2L20.8 44" stroke="#1b2229" stroke-opacity=".28" stroke-width="1"/><path d="M20.8 44L20.8 44" stroke="#1b2229" stroke-width="4.2" stroke-linecap="round"/><path d="M20.8 44L20.8 44" stroke="#e2d5b6" stroke-width="2" stroke-linecap="round"/><path d="M20.8 44q-2 -6 -6 -7q1 3 1.5 5" fill="none" stroke="#e2d5b6" stroke-width="2.2" stroke-linecap="round"/><path d="M20.8 44q2 -6 6 -7q-1 3 -1.5 5" fill="none" stroke="#e2d5b6" stroke-width="2.2" stroke-linecap="round"/><path d="M-1.7 55Q9.5 69.6 20.8 68" fill="none" stroke="#6a909a" stroke-width="1.3" stroke-opacity=".9" transform="translate(0 -1.6)"/><path d="M20.8 68Q32 69.6 43.3 55" fill="none" stroke="#6a909a" stroke-width="1.3" stroke-opacity=".9" transform="translate(0 -1.6)"/><path d="M-8.7 5v-10" stroke="#1b2229" stroke-width="3.2" stroke-linecap="round"/><path d="M-8.7 5v-10" stroke="#c08a5c" stroke-width="1.6" stroke-linecap="round"/><path d="M-16.5 9.5v-10" stroke="#1b2229" stroke-width="3.2" stroke-linecap="round"/><path d="M-16.5 9.5v-10" stroke="#c08a5c" stroke-width="1.6" stroke-linecap="round"/><path d="M-24.2 14v-10" stroke="#1b2229" stroke-width="3.2" stroke-linecap="round"/><path d="M-24.2 14v-10" stroke="#c08a5c" stroke-width="1.6" stroke-linecap="round"/><path d="M-32 18.5v-10" stroke="#1b2229" stroke-width="3.2" stroke-linecap="round"/><path d="M-32 18.5v-10" stroke="#c08a5c" stroke-width="1.6" stroke-linecap="round"/><path d="M-39.8 23v-10" stroke="#1b2229" stroke-width="3.2" stroke-linecap="round"/><path d="M-39.8 23v-10" stroke="#c08a5c" stroke-width="1.6" stroke-linecap="round"/><path d="M-47.6 27.5v-10" stroke="#1b2229" stroke-width="3.2" stroke-linecap="round"/><path d="M-47.6 27.5v-10" stroke="#c08a5c" stroke-width="1.6" stroke-linecap="round"/><path d="M-55.4 32v-10" stroke="#1b2229" stroke-width="3.2" stroke-linecap="round"/><path d="M-55.4 32v-10" stroke="#c08a5c" stroke-width="1.6" stroke-linecap="round"/><path d="M-63.2 36.5v-10" stroke="#1b2229" stroke-width="3.2" stroke-linecap="round"/><path d="M-63.2 36.5v-10" stroke="#c08a5c" stroke-width="1.6" stroke-linecap="round"/><path d="M-71 41v-10" stroke="#1b2229" stroke-width="3.2" stroke-linecap="round"/><path d="M-71 41v-10" stroke="#c08a5c" stroke-width="1.6" stroke-linecap="round"/></svg>