<svg xmlns="http://www.w3.org/2000/svg" viewBox="0 0 64 64"><defs><linearGradient id="omesvg11g0" x1="0" y1="0" x2="0" y2="1"><stop offset="0" stop-color="#fff1c9"/><stop offset="0.45" stop-color="#d8b168"/><stop offset="1" stop-color="#8a6a34"/></linearGradient></defs><path d="M4 27Q20 25 32 10Q44 25 60 27L55 31H9Z" fill="url(#omesvg11g0)" stroke="#8a6a34" stroke-width="1.4" stroke-linejoin="round"/><path d="M10 27Q22 25 32 15Q42 25 54 27" fill="none" stroke="#8a6a34" stroke-width="1" stroke-linecap="round"/><path d="M12 31H52V57H12Z" fill="url(#omesvg11g0)" stroke="#8a6a34" stroke-width="1.4" stroke-linejoin="round"/><path d="M16 33V57" stroke="#8a6a34" stroke-width="2"/><path d="M48 33V57" stroke="#8a6a34" stroke-width="2"/><path d="M32 36a10 10 0 0 1 10 10V57H22V46a10 10 0 0 1 10 -10z" fill="#70582e"/><path d="M32 40a6 6 0 0 1 6 6" fill="none" stroke="#f0d596" stroke-width=".8"/><path d="M6 58H58" stroke="#8a6a34" stroke-width="3" stroke-linecap="round"/><circle cx="32" cy="8" r="2" fill="url(#omesvg11g0)" stroke="#8a6a34" stroke-width="1.4" stroke-linejoin="round"/></svg>