<svg xmlns="http://www.w3.org/2000/svg" viewBox="0 0 600 1200"><defs><linearGradient id="sky" x1="0" y1="0" x2="0" y2="1"><stop offset="0" stop-color="#16283a" stop-opacity="1"/><stop offset="0.45" stop-color="#35606a" stop-opacity="1"/><stop offset="0.8" stop-color="#c9b48a" stop-opacity="1"/><stop offset="1" stop-color="#e9d3a2" stop-opacity="1"/></linearGradient><linearGradient id="far" x1="0" y1="0" x2="0" y2="1"><stop offset="0" stop-color="#7fa9a6" stop-opacity="1"/><stop offset="1" stop-color="#b9cdbf" stop-opacity="1"/></linearGradient><linearGradient id="mid" x1="0" y1="0" x2="0" y2="1"><stop offset="0" stop-color="#4fb3a4" stop-opacity="1"/><stop offset="0.5" stop-color="#3f8a82" stop-opacity="1"/><stop offset="1" stop-color="#6f9c8a" stop-opacity="1"/></linearGradient><linearGradient id="near" x1="0" y1="0" x2="0" y2="1"><stop offset="0" stop-color="#2f7f78" stop-opacity="1"/><stop offset="0.6" stop-color="#2e5a7a" stop-opacity="1"/><stop offset="1" stop-color="#35584f" stop-opacity="1"/></linearGradient><linearGradient id="ground" x1="0" y1="0" x2="0" y2="1"><stop offset="0" stop-color="#6f9a6a" stop-opacity="1"/><stop offset="0.25" stop-color="#557f55" stop-opacity="1"/><stop offset="0.7" stop-color="#3d6446" stop-opacity="1"/><stop offset="1" stop-color="#243d33" stop-opacity="1"/></linearGradient><linearGradient id="river" x1="0" y1="0" x2="0" y2="1"><stop offset="0" stop-color="#cfeee4" stop-opacity="1"/><stop offset="0.5" stop-color="#8fcfc0" stop-opacity="1"/><stop offset="1" stop-color="#5fa6a0" stop-opacity="1"/></linearGradient><radialGradient id="sun"><stop offset="0" stop-color="#fff3cf" stop-opacity="0.9"/><stop offset="1" stop-color="#fff3cf" stop-opacity="0"/></radialGradient><linearGradient id="vig" x1="0" y1="0" x2="0" y2="1"><stop offset="0" stop-color="#0b1219" stop-opacity="0"/><stop offset="0.75" stop-color="#0b1219" stop-opacity="0"/><stop offset="1" stop-color="#0b1219" stop-opacity="0.55"/></linearGradient><linearGradient id="bgL" x1="0" y1="0" x2="0" y2="1"><stop offset="0" stop-color="#4fb3a4" stop-opacity="1"/><stop offset="0.35" stop-color="#2f7f78" stop-opacity="1"/><stop offset="0.7" stop-color="#2e5a7a" stop-opacity="1"/><stop offset="1" stop-color="#6e4430" stop-opacity="1"/></linearGradient><linearGradient id="bgR" x1="0" y1="0" x2="0" y2="1"><stop offset="0" stop-color="#4fb3a4" stop-opacity="1"/><stop offset="0.35" stop-color="#2f7f78" stop-opacity="1"/><stop offset="0.7" stop-color="#2e5a7a" stop-opacity="1"/><stop offset="1" stop-color="#6e4430" stop-opacity="1"/></linearGradient></defs><path d="M0 0H600V1200H0Z" fill="url(#sky)"/><circle cx="440" cy="250" r="110" fill="url(#sun)"/><circle cx="440" cy="250" r="34" fill="#fff6dc" fill-opacity=".9"/><path d="M150 170q6 -5 12 0q6 -5 12 0" fill="none" stroke="#22313d" stroke-width="1.6" stroke-linecap="round"/><path d="M178 186q4.800000000000001 -4 9.600000000000001 0q4.800000000000001 -4 9.600000000000001 0" fill="none" stroke="#22313d" stroke-width="1.6" stroke-linecap="round"/><path d="M204 162q4.199999999999999 -3.5 8.399999999999999 0q4.199999999999999 -3.5 8.399999999999999 0" fill="none" stroke="#22313d" stroke-width="1.6" stroke-linecap="round"/><path d="M-40 450C-30 425 0 336.7 20 300C40 263.3 61.7 233.3 80 230C98.3 226.7 111.7 285 130 280C148.3 275 170 201.7 190 200C210 198.3 231.7 263.3 250 270C268.3 276.7 281.7 236.7 300 240C318.3 243.3 340 295 360 290C380 285 396.7 211.7 420 210C443.3 208.3 476.7 276.7 500 280C523.3 283.3 540 228.3 560 230C580 231.7 606.7 253.3 620 290C633.3 326.7 636.7 423.3 640 450L640 650L-40 650Z" fill="url(#far)" fill-opacity=".85"/><path d="M40 300h220a11 11 0 0 1 0 22h-220a11 11 0 0 1 0 -22z" fill="#eef4ee" fill-opacity="0.45"/><path d="M330 320h240a10 10 0 0 1 0 20h-240a10 10 0 0 1 0 -20z" fill="#eef4ee" fill-opacity="0.4"/><path d="M-40 500C-35 471.7 -23.3 371.7 -10 330C3.3 288.3 23.3 251.7 40 250C56.7 248.3 71.7 313.3 90 320C108.3 326.7 130 285 150 290C170 295 190 346.7 210 350C230 353.3 250 308.3 270 310C290 311.7 308.3 361.7 330 360C351.7 358.3 380 318.3 400 300C420 281.7 431.7 246.7 450 250C468.3 253.3 483.3 316.7 510 320C536.7 323.3 588.3 240 610 270C631.7 300 635 461.7 640 500L640 700L-40 700Z" fill="url(#mid)"/><path d="M292 316q8 -4 16 0L318 420h-32z" fill="#e7f6f0" fill-opacity=".85"/><path d="M298 320L296 416M306 320L310 416" stroke="#fff" stroke-opacity=".7" stroke-width="1.4"/><path d="M250 400h120a10 10 0 0 1 0 20h-120a10 10 0 0 1 0 -20z" fill="#eef4ee" fill-opacity="0.55"/><path d="M-80 470Q-59 282.5 -30 220Q-13.5 239.4 -5 297.5Q3.5 284.4 20 280Q39 300.3 50 361Q61 345.3 80 340Q114 372.5 140 470Q30 480 -80 470Z" fill="url(#bgL)" stroke="#1b2229" stroke-width="1.6" stroke-linejoin="round"/><path d="M-30 220Q-22 345 14 472L46 472Q20 375 -5 297.5Q-5 224 -30 220Z" fill="#16202a" fill-opacity=".32"/><path d="M-46 295q6 -4 12 -1" fill="none" stroke="#1b2229" stroke-opacity=".35" stroke-width="1.2" stroke-linecap="round"/><path d="M-43 345q6 -4 12 -1" fill="none" stroke="#1b2229" stroke-opacity=".35" stroke-width="1.2" stroke-linecap="round"/><path d="M-40 395q6 -4 12 -1" fill="none" stroke="#1b2229" stroke-opacity=".35" stroke-width="1.2" stroke-linecap="round"/><path d="M-39 228Q-33 219 -30 220Q-26 222 -22 229Q-30 225 -39 228Z" fill="#86b36e" fill-opacity=".85"/><path d="M20 280Q28 375 74 472L106 472Q80 405 50 361Q50 284 20 280Z" fill="#16202a" fill-opacity=".32"/><path d="M4 337q6 -4 12 -1" fill="none" stroke="#1b2229" stroke-opacity=".35" stroke-width="1.2" stroke-linecap="round"/><path d="M7 375q6 -4 12 -1" fill="none" stroke="#1b2229" stroke-opacity=".35" stroke-width="1.2" stroke-linecap="round"/><path d="M10 413q6 -4 12 -1" fill="none" stroke="#1b2229" stroke-opacity=".35" stroke-width="1.2" stroke-linecap="round"/><path d="M11 288Q17 279 20 280Q24 282 28 289Q20 285 11 288Z" fill="#86b36e" fill-opacity=".85"/><path d="M80 340Q88 405 134 472L140 472Q140 470 140 470Q110 344 80 340Z" fill="#16202a" fill-opacity=".32"/><path d="M64 379q6 -4 12 -1" fill="none" stroke="#1b2229" stroke-opacity=".35" stroke-width="1.2" stroke-linecap="round"/><path d="M67 405q6 -4 12 -1" fill="none" stroke="#1b2229" stroke-opacity=".35" stroke-width="1.2" stroke-linecap="round"/><path d="M70 431q6 -4 12 -1" fill="none" stroke="#1b2229" stroke-opacity=".35" stroke-width="1.2" stroke-linecap="round"/><path d="M71 348Q77 339 80 340Q84 342 88 349Q80 345 71 348Z" fill="#86b36e" fill-opacity=".85"/><path d="M460 460Q486 370 520 340Q539 345.3 550 361Q561 277.8 580 250Q599 255.3 610 271Q621 202.8 640 180Q674 250 700 460Q580 470 460 460Z" fill="url(#bgR)" stroke="#1b2229" stroke-width="1.6" stroke-linejoin="round"/><path d="M520 340Q528 400 574 462L606 462Q580 355 550 361Q550 344 520 340Z" fill="#16202a" fill-opacity=".32"/><path d="M504 376q6 -4 12 -1" fill="none" stroke="#1b2229" stroke-opacity=".35" stroke-width="1.2" stroke-linecap="round"/><path d="M507 400q6 -4 12 -1" fill="none" stroke="#1b2229" stroke-opacity=".35" stroke-width="1.2" stroke-linecap="round"/><path d="M510 424q6 -4 12 -1" fill="none" stroke="#1b2229" stroke-opacity=".35" stroke-width="1.2" stroke-linecap="round"/><path d="M511 348Q517 339 520 340Q524 342 528 349Q520 345 511 348Z" fill="#86b36e" fill-opacity=".85"/><path d="M580 250Q588 355 634 462L666 462Q640 320 610 271Q610 254 580 250Z" fill="#16202a" fill-opacity=".32"/><path d="M564 313q6 -4 12 -1" fill="none" stroke="#1b2229" stroke-opacity=".35" stroke-width="1.2" stroke-linecap="round"/><path d="M567 355q6 -4 12 -1" fill="none" stroke="#1b2229" stroke-opacity=".35" stroke-width="1.2" stroke-linecap="round"/><path d="M570 397q6 -4 12 -1" fill="none" stroke="#1b2229" stroke-opacity=".35" stroke-width="1.2" stroke-linecap="round"/><path d="M571 258Q577 249 580 250Q584 252 588 259Q580 255 571 258Z" fill="#86b36e" fill-opacity=".85"/><path d="M640 180Q648 320 694 462L700 462Q700 460 700 460Q670 184 640 180Z" fill="#16202a" fill-opacity=".32"/><path d="M624 264q6 -4 12 -1" fill="none" stroke="#1b2229" stroke-opacity=".35" stroke-width="1.2" stroke-linecap="round"/><path d="M627 320q6 -4 12 -1" fill="none" stroke="#1b2229" stroke-opacity=".35" stroke-width="1.2" stroke-linecap="round"/><path d="M630 376q6 -4 12 -1" fill="none" stroke="#1b2229" stroke-opacity=".35" stroke-width="1.2" stroke-linecap="round"/><path d="M631 188Q637 179 640 180Q644 182 648 189Q640 185 631 188Z" fill="#86b36e" fill-opacity=".85"/><path d="M-40 420h260a13 13 0 0 1 0 26h-260a13 13 0 0 1 0 -26z" fill="#eef4ee" fill-opacity="0.5"/><path d="M380 430h280a12 12 0 0 1 0 24h-280a12 12 0 0 1 0 -24z" fill="#eef4ee" fill-opacity="0.5"/><path d="M0 430C120 400 220 420 300 412C390 404 500 420 600 432V1200H0Z" fill="url(#ground)"/><path d="M40 440C150 432 220 446 260 438M350 442C420 434 500 446 570 438" fill="none" stroke="#b9d98f" stroke-opacity="0.35" stroke-width="1.4"/><path d="M46 454C150 446 220 460 260 452M346 456C420 448 500 460 565 452" fill="none" stroke="#b9d98f" stroke-opacity="0.31" stroke-width="1.4"/><path d="M52 468C150 460 220 474 260 466M342 470C420 462 500 474 560 466" fill="none" stroke="#b9d98f" stroke-opacity="0.26999999999999996" stroke-width="1.4"/><path d="M58 482C150 474 220 488 260 480M338 484C420 476 500 488 555 480" fill="none" stroke="#b9d98f" stroke-opacity="0.22999999999999998" stroke-width="1.4"/><path d="M64 496C150 488 220 502 260 494M334 498C420 490 500 502 550 494" fill="none" stroke="#b9d98f" stroke-opacity="0.18999999999999997" stroke-width="1.4"/><path d="M70 510C150 502 220 516 260 508M330 512C420 504 500 516 545 508" fill="none" stroke="#b9d98f" stroke-opacity="0.14999999999999997" stroke-width="1.4"/><path d="M292 420C300 433.3 350 471.7 360 500C370 528.3 370.3 563.3 352 590C333.7 616.7 282 628.3 250 660C218 691.7 190 748.3 160 780C130 811.7 100 833.3 70 850C40 866.7 -5 866.7 -20 880C-35 893.3 -40.7 928.3 -20 930C0.7 931.7 68 910 104 890C140 870 166.3 843.3 196 810C225.7 776.7 250 723.3 282 690C314 656.7 369 640.7 388 610C407 579.3 408.7 537.7 396 506C383.3 474.3 329.3 434.3 312 420C294.7 405.7 284 406.7 292 420Z" fill="url(#river)" stroke="#2c5a58" stroke-width="2"/><path d="M317 520q6.5 -4 13 0t13 0" fill="none" stroke="#fff" stroke-opacity=".55" stroke-width="1.6" stroke-linecap="round"/><path d="M305 610q7.5 -4 15 0t15 0" fill="none" stroke="#fff" stroke-opacity=".55" stroke-width="1.6" stroke-linecap="round"/><path d="M213 720q8.5 -4 17 0t17 0" fill="none" stroke="#fff" stroke-opacity=".55" stroke-width="1.6" stroke-linecap="round"/><path d="M115 830q7.5 -4 15 0t15 0" fill="none" stroke="#fff" stroke-opacity=".55" stroke-width="1.6" stroke-linecap="round"/><path d="M47 885q6.5 -4 13 0t13 0" fill="none" stroke="#fff" stroke-opacity=".55" stroke-width="1.6" stroke-linecap="round"/><path d="M300 1210C296 1100 310 990 300 890C292 850 300 820 300 800" fill="none" stroke="#2a3a30" stroke-width="36" stroke-linecap="round" stroke-opacity=".35"/><path d="M300 1210C296 1100 310 990 300 890C292 850 300 820 300 800" fill="none" stroke="#c9b996" stroke-width="28" stroke-linecap="round"/><path d="M300 1210C296 1100 310 990 300 890C292 850 300 820 300 800" fill="none" stroke="#a8966f" stroke-width="28" stroke-dasharray="3 16" stroke-linecap="butt"/><path d="M300 960C240 970 190 990 150 1010" fill="none" stroke="#c9b996" stroke-opacity=".75" stroke-width="16" stroke-linecap="round"/><path d="M300 960C360 970 410 990 450 1010" fill="none" stroke="#c9b996" stroke-opacity=".75" stroke-width="16" stroke-linecap="round"/><path d="M300 720C250 720 190 740 140 760" fill="none" stroke="#c9b996" stroke-opacity=".75" stroke-width="16" stroke-linecap="round"/><path d="M300 740C360 730 420 740 470 770" fill="none" stroke="#c9b996" stroke-opacity=".75" stroke-width="16" stroke-linecap="round"/><path d="M262 690q18 -22 40 -4" fill="none" stroke="#1b2229" stroke-width="9" stroke-linecap="round"/><path d="M262 690q18 -22 40 -4" fill="none" stroke="#c65440" stroke-width="5" stroke-linecap="round"/><path d="M0.1 790.7l-3 -7m3 7l0 -9m0 9l4 -7" fill="none" stroke="#2f4f3a" stroke-opacity=".7" stroke-width="1.4" stroke-linecap="round"/><path d="M27.1 1096.7l-3 -7m3 7l0 -9m0 9l4 -7" fill="none" stroke="#2f4f3a" stroke-opacity=".7" stroke-width="1.4" stroke-linecap="round"/><path d="M310.5 806l-3 -7m3 7l0 -9m0 9l4 -7" fill="none" stroke="#2f4f3a" stroke-opacity=".7" stroke-width="1.4" stroke-linecap="round"/><path d="M428.1 564.1l-3 -7m3 7l0 -9m0 9l4 -7" fill="none" stroke="#2f4f3a" stroke-opacity=".7" stroke-width="1.4" stroke-linecap="round"/><path d="M352.8 1071.8l-3 -7m3 7l0 -9m0 9l4 -7" fill="none" stroke="#2f4f3a" stroke-opacity=".7" stroke-width="1.4" stroke-linecap="round"/><path d="M50.8 621l-3 -7m3 7l0 -9m0 9l4 -7" fill="none" stroke="#9cc57a" stroke-opacity=".7" stroke-width="1.4" stroke-linecap="round"/><path d="M355.4 870.3l-3 -7m3 7l0 -9m0 9l4 -7" fill="none" stroke="#2f4f3a" stroke-opacity=".7" stroke-width="1.4" stroke-linecap="round"/><path d="M230.5 1116.4l-3 -7m3 7l0 -9m0 9l4 -7" fill="none" stroke="#9cc57a" stroke-opacity=".7" stroke-width="1.4" stroke-linecap="round"/><path d="M58.1 911.8l-3 -7m3 7l0 -9m0 9l4 -7" fill="none" stroke="#9cc57a" stroke-opacity=".7" stroke-width="1.4" stroke-linecap="round"/><path d="M11.2 990.9l-3 -7m3 7l0 -9m0 9l4 -7" fill="none" stroke="#9cc57a" stroke-opacity=".7" stroke-width="1.4" stroke-linecap="round"/><path d="M569.6 672.3l-3 -7m3 7l0 -9m0 9l4 -7" fill="none" stroke="#2f4f3a" stroke-opacity=".7" stroke-width="1.4" stroke-linecap="round"/><path d="M480.3 779.3l-3 -7m3 7l0 -9m0 9l4 -7" fill="none" stroke="#2f4f3a" stroke-opacity=".7" stroke-width="1.4" stroke-linecap="round"/><path d="M369.3 477.7l-3 -7m3 7l0 -9m0 9l4 -7" fill="none" stroke="#9cc57a" stroke-opacity=".7" stroke-width="1.4" stroke-linecap="round"/><path d="M399.7 1163.9l-3 -7m3 7l0 -9m0 9l4 -7" fill="none" stroke="#9cc57a" stroke-opacity=".7" stroke-width="1.4" stroke-linecap="round"/><path d="M407.5 836.9l-3 -7m3 7l0 -9m0 9l4 -7" fill="none" stroke="#9cc57a" stroke-opacity=".7" stroke-width="1.4" stroke-linecap="round"/><path d="M260.2 1146.4l-3 -7m3 7l0 -9m0 9l4 -7" fill="none" stroke="#9cc57a" stroke-opacity=".7" stroke-width="1.4" stroke-linecap="round"/><path d="M255.2 1060.3l-3 -7m3 7l0 -9m0 9l4 -7" fill="none" stroke="#9cc57a" stroke-opacity=".7" stroke-width="1.4" stroke-linecap="round"/><path d="M31.2 1072.1l-3 -7m3 7l0 -9m0 9l4 -7" fill="none" stroke="#2f4f3a" stroke-opacity=".7" stroke-width="1.4" stroke-linecap="round"/><path d="M210.5 867.7l-3 -7m3 7l0 -9m0 9l4 -7" fill="none" stroke="#2f4f3a" stroke-opacity=".7" stroke-width="1.4" stroke-linecap="round"/><path d="M283.4 538.4l-3 -7m3 7l0 -9m0 9l4 -7" fill="none" stroke="#2f4f3a" stroke-opacity=".7" stroke-width="1.4" stroke-linecap="round"/><path d="M330.4 1144.5l-3 -7m3 7l0 -9m0 9l4 -7" fill="none" stroke="#2f4f3a" stroke-opacity=".7" stroke-width="1.4" stroke-linecap="round"/><path d="M587.7 1195.6l-3 -7m3 7l0 -9m0 9l4 -7" fill="none" stroke="#9cc57a" stroke-opacity=".7" stroke-width="1.4" stroke-linecap="round"/><path d="M319.7 649.9l-3 -7m3 7l0 -9m0 9l4 -7" fill="none" stroke="#9cc57a" stroke-opacity=".7" stroke-width="1.4" stroke-linecap="round"/><path d="M341.6 1133.7l-3 -7m3 7l0 -9m0 9l4 -7" fill="none" stroke="#2f4f3a" stroke-opacity=".7" stroke-width="1.4" stroke-linecap="round"/><path d="M527.4 817.6l-3 -7m3 7l0 -9m0 9l4 -7" fill="none" stroke="#9cc57a" stroke-opacity=".7" stroke-width="1.4" stroke-linecap="round"/><path d="M138.7 534.3l-3 -7m3 7l0 -9m0 9l4 -7" fill="none" stroke="#9cc57a" stroke-opacity=".7" stroke-width="1.4" stroke-linecap="round"/><path d="M517.1 781.7l-3 -7m3 7l0 -9m0 9l4 -7" fill="none" stroke="#2f4f3a" stroke-opacity=".7" stroke-width="1.4" stroke-linecap="round"/><path d="M12.3 484.4l-3 -7m3 7l0 -9m0 9l4 -7" fill="none" stroke="#9cc57a" stroke-opacity=".7" stroke-width="1.4" stroke-linecap="round"/><path d="M177.4 1057.9l-3 -7m3 7l0 -9m0 9l4 -7" fill="none" stroke="#2f4f3a" stroke-opacity=".7" stroke-width="1.4" stroke-linecap="round"/><path d="M383.4 1192.5l-3 -7m3 7l0 -9m0 9l4 -7" fill="none" stroke="#2f4f3a" stroke-opacity=".7" stroke-width="1.4" stroke-linecap="round"/><path d="M454.1 587.8l-3 -7m3 7l0 -9m0 9l4 -7" fill="none" stroke="#9cc57a" stroke-opacity=".7" stroke-width="1.4" stroke-linecap="round"/><path d="M296.9 640.5l-3 -7m3 7l0 -9m0 9l4 -7" fill="none" stroke="#2f4f3a" stroke-opacity=".7" stroke-width="1.4" stroke-linecap="round"/><path d="M298.3 920.9l-3 -7m3 7l0 -9m0 9l4 -7" fill="none" stroke="#2f4f3a" stroke-opacity=".7" stroke-width="1.4" stroke-linecap="round"/><path d="M180.8 823.5l-3 -7m3 7l0 -9m0 9l4 -7" fill="none" stroke="#9cc57a" stroke-opacity=".7" stroke-width="1.4" stroke-linecap="round"/><path d="M70.6 926l-3 -7m3 7l0 -9m0 9l4 -7" fill="none" stroke="#9cc57a" stroke-opacity=".7" stroke-width="1.4" stroke-linecap="round"/><path d="M297.9 874.4l-3 -7m3 7l0 -9m0 9l4 -7" fill="none" stroke="#2f4f3a" stroke-opacity=".7" stroke-width="1.4" stroke-linecap="round"/><path d="M464 736.5l-3 -7m3 7l0 -9m0 9l4 -7" fill="none" stroke="#2f4f3a" stroke-opacity=".7" stroke-width="1.4" stroke-linecap="round"/><path d="M118.4 838.7l-3 -7m3 7l0 -9m0 9l4 -7" fill="none" stroke="#9cc57a" stroke-opacity=".7" stroke-width="1.4" stroke-linecap="round"/><path d="M236.3 581.2l-3 -7m3 7l0 -9m0 9l4 -7" fill="none" stroke="#9cc57a" stroke-opacity=".7" stroke-width="1.4" stroke-linecap="round"/><path d="M500.3 997.4l-3 -7m3 7l0 -9m0 9l4 -7" fill="none" stroke="#2f4f3a" stroke-opacity=".7" stroke-width="1.4" stroke-linecap="round"/><path d="M253.4 839.9l-3 -7m3 7l0 -9m0 9l4 -7" fill="none" stroke="#2f4f3a" stroke-opacity=".7" stroke-width="1.4" stroke-linecap="round"/><path d="M470.5 1038.5l-3 -7m3 7l0 -9m0 9l4 -7" fill="none" stroke="#2f4f3a" stroke-opacity=".7" stroke-width="1.4" stroke-linecap="round"/><path d="M470.2 819.8l-3 -7m3 7l0 -9m0 9l4 -7" fill="none" stroke="#9cc57a" stroke-opacity=".7" stroke-width="1.4" stroke-linecap="round"/><path d="M5 1085.1l-3 -7m3 7l0 -9m0 9l4 -7" fill="none" stroke="#9cc57a" stroke-opacity=".7" stroke-width="1.4" stroke-linecap="round"/><path d="M539 643.8l-3 -7m3 7l0 -9m0 9l4 -7" fill="none" stroke="#2f4f3a" stroke-opacity=".7" stroke-width="1.4" stroke-linecap="round"/><path d="M220.6 811.9l-3 -7m3 7l0 -9m0 9l4 -7" fill="none" stroke="#9cc57a" stroke-opacity=".7" stroke-width="1.4" stroke-linecap="round"/><path d="M450.8 807.4l-3 -7m3 7l0 -9m0 9l4 -7" fill="none" stroke="#2f4f3a" stroke-opacity=".7" stroke-width="1.4" stroke-linecap="round"/><path d="M339.3 907.2l-3 -7m3 7l0 -9m0 9l4 -7" fill="none" stroke="#9cc57a" stroke-opacity=".7" stroke-width="1.4" stroke-linecap="round"/><path d="M188.6 522.7l-3 -7m3 7l0 -9m0 9l4 -7" fill="none" stroke="#2f4f3a" stroke-opacity=".7" stroke-width="1.4" stroke-linecap="round"/><path d="M576.1 1076.1l-3 -7m3 7l0 -9m0 9l4 -7" fill="none" stroke="#2f4f3a" stroke-opacity=".7" stroke-width="1.4" stroke-linecap="round"/><path d="M515.2 828.9l-3 -7m3 7l0 -9m0 9l4 -7" fill="none" stroke="#2f4f3a" stroke-opacity=".7" stroke-width="1.4" stroke-linecap="round"/><path d="M395.3 562l-3 -7m3 7l0 -9m0 9l4 -7" fill="none" stroke="#9cc57a" stroke-opacity=".7" stroke-width="1.4" stroke-linecap="round"/><path d="M206.3 935.2l-3 -7m3 7l0 -9m0 9l4 -7" fill="none" stroke="#9cc57a" stroke-opacity=".7" stroke-width="1.4" stroke-linecap="round"/><path d="M16.3 875.8l-3 -7m3 7l0 -9m0 9l4 -7" fill="none" stroke="#9cc57a" stroke-opacity=".7" stroke-width="1.4" stroke-linecap="round"/><path d="M484.8 1031.2l-3 -7m3 7l0 -9m0 9l4 -7" fill="none" stroke="#2f4f3a" stroke-opacity=".7" stroke-width="1.4" stroke-linecap="round"/><path d="M126 1012.3l-3 -7m3 7l0 -9m0 9l4 -7" fill="none" stroke="#9cc57a" stroke-opacity=".7" stroke-width="1.4" stroke-linecap="round"/><path d="M57.9 990.7l-3 -7m3 7l0 -9m0 9l4 -7" fill="none" stroke="#9cc57a" stroke-opacity=".7" stroke-width="1.4" stroke-linecap="round"/><path d="M227 714.9l-3 -7m3 7l0 -9m0 9l4 -7" fill="none" stroke="#9cc57a" stroke-opacity=".7" stroke-width="1.4" stroke-linecap="round"/><path d="M117.1 521.4l-3 -7m3 7l0 -9m0 9l4 -7" fill="none" stroke="#9cc57a" stroke-opacity=".7" stroke-width="1.4" stroke-linecap="round"/><path d="M318.7 1165.8l-3 -7m3 7l0 -9m0 9l4 -7" fill="none" stroke="#9cc57a" stroke-opacity=".7" stroke-width="1.4" stroke-linecap="round"/><path d="M222.5 1130.6l-3 -7m3 7l0 -9m0 9l4 -7" fill="none" stroke="#2f4f3a" stroke-opacity=".7" stroke-width="1.4" stroke-linecap="round"/><path d="M396.8 975.4l-3 -7m3 7l0 -9m0 9l4 -7" fill="none" stroke="#9cc57a" stroke-opacity=".7" stroke-width="1.4" stroke-linecap="round"/><path d="M10 701.8l-3 -7m3 7l0 -9m0 9l4 -7" fill="none" stroke="#9cc57a" stroke-opacity=".7" stroke-width="1.4" stroke-linecap="round"/><path d="M5.8 835.1l-3 -7m3 7l0 -9m0 9l4 -7" fill="none" stroke="#2f4f3a" stroke-opacity=".7" stroke-width="1.4" stroke-linecap="round"/><path d="M306.6 900.3l-3 -7m3 7l0 -9m0 9l4 -7" fill="none" stroke="#9cc57a" stroke-opacity=".7" stroke-width="1.4" stroke-linecap="round"/><path d="M291.7 650.8l-3 -7m3 7l0 -9m0 9l4 -7" fill="none" stroke="#2f4f3a" stroke-opacity=".7" stroke-width="1.4" stroke-linecap="round"/><path d="M478.9 545.7l-3 -7m3 7l0 -9m0 9l4 -7" fill="none" stroke="#2f4f3a" stroke-opacity=".7" stroke-width="1.4" stroke-linecap="round"/><path d="M539.5 759l-3 -7m3 7l0 -9m0 9l4 -7" fill="none" stroke="#9cc57a" stroke-opacity=".7" stroke-width="1.4" stroke-linecap="round"/><path d="M211.4 718.3l-3 -7m3 7l0 -9m0 9l4 -7" fill="none" stroke="#9cc57a" stroke-opacity=".7" stroke-width="1.4" stroke-linecap="round"/><path d="M166.2 810.6l-3 -7m3 7l0 -9m0 9l4 -7" fill="none" stroke="#2f4f3a" stroke-opacity=".7" stroke-width="1.4" stroke-linecap="round"/><path d="M368.3 552l-3 -7m3 7l0 -9m0 9l4 -7" fill="none" stroke="#9cc57a" stroke-opacity=".7" stroke-width="1.4" stroke-linecap="round"/><path d="M373.5 938.8l-3 -7m3 7l0 -9m0 9l4 -7" fill="none" stroke="#2f4f3a" stroke-opacity=".7" stroke-width="1.4" stroke-linecap="round"/><path d="M80.2 552.1l-3 -7m3 7l0 -9m0 9l4 -7" fill="none" stroke="#2f4f3a" stroke-opacity=".7" stroke-width="1.4" stroke-linecap="round"/><path d="M10.2 830.7l-3 -7m3 7l0 -9m0 9l4 -7" fill="none" stroke="#2f4f3a" stroke-opacity=".7" stroke-width="1.4" stroke-linecap="round"/><path d="M366.7 1159.8l-3 -7m3 7l0 -9m0 9l4 -7" fill="none" stroke="#2f4f3a" stroke-opacity=".7" stroke-width="1.4" stroke-linecap="round"/><path d="M70.8 766l-3 -7m3 7l0 -9m0 9l4 -7" fill="none" stroke="#9cc57a" stroke-opacity=".7" stroke-width="1.4" stroke-linecap="round"/><path d="M393.6 1009.4l-3 -7m3 7l0 -9m0 9l4 -7" fill="none" stroke="#9cc57a" stroke-opacity=".7" stroke-width="1.4" stroke-linecap="round"/><path d="M169.4 729.9l-3 -7m3 7l0 -9m0 9l4 -7" fill="none" stroke="#9cc57a" stroke-opacity=".7" stroke-width="1.4" stroke-linecap="round"/><path d="M372.5 889.5l-3 -7m3 7l0 -9m0 9l4 -7" fill="none" stroke="#2f4f3a" stroke-opacity=".7" stroke-width="1.4" stroke-linecap="round"/><path d="M175.1 747.3l-3 -7m3 7l0 -9m0 9l4 -7" fill="none" stroke="#9cc57a" stroke-opacity=".7" stroke-width="1.4" stroke-linecap="round"/><path d="M55.8 806.2l-3 -7m3 7l0 -9m0 9l4 -7" fill="none" stroke="#9cc57a" stroke-opacity=".7" stroke-width="1.4" stroke-linecap="round"/><path d="M277.5 1160l-3 -7m3 7l0 -9m0 9l4 -7" fill="none" stroke="#2f4f3a" stroke-opacity=".7" stroke-width="1.4" stroke-linecap="round"/><path d="M77.4 812.3l-3 -7m3 7l0 -9m0 9l4 -7" fill="none" stroke="#2f4f3a" stroke-opacity=".7" stroke-width="1.4" stroke-linecap="round"/><path d="M488.4 769.4l-3 -7m3 7l0 -9m0 9l4 -7" fill="none" stroke="#2f4f3a" stroke-opacity=".7" stroke-width="1.4" stroke-linecap="round"/><path d="M419.4 1007.1l-3 -7m3 7l0 -9m0 9l4 -7" fill="none" stroke="#9cc57a" stroke-opacity=".7" stroke-width="1.4" stroke-linecap="round"/><path d="M43.5 699.2l-3 -7m3 7l0 -9m0 9l4 -7" fill="none" stroke="#9cc57a" stroke-opacity=".7" stroke-width="1.4" stroke-linecap="round"/><path d="M43.3 1097.1l-3 -7m3 7l0 -9m0 9l4 -7" fill="none" stroke="#2f4f3a" stroke-opacity=".7" stroke-width="1.4" stroke-linecap="round"/><path d="M475.9 748.3l-3 -7m3 7l0 -9m0 9l4 -7" fill="none" stroke="#2f4f3a" stroke-opacity=".7" stroke-width="1.4" stroke-linecap="round"/><path d="M392 470.9l-3 -7m3 7l0 -9m0 9l4 -7" fill="none" stroke="#9cc57a" stroke-opacity=".7" stroke-width="1.4" stroke-linecap="round"/><path d="M235.4 510.1l-3 -7m3 7l0 -9m0 9l4 -7" fill="none" stroke="#2f4f3a" stroke-opacity=".7" stroke-width="1.4" stroke-linecap="round"/><path d="M322.3 507.9l-3 -7m3 7l0 -9m0 9l4 -7" fill="none" stroke="#9cc57a" stroke-opacity=".7" stroke-width="1.4" stroke-linecap="round"/><path d="M164.9 770.9l-3 -7m3 7l0 -9m0 9l4 -7" fill="none" stroke="#9cc57a" stroke-opacity=".7" stroke-width="1.4" stroke-linecap="round"/><path d="M222.6 1038.7l-3 -7m3 7l0 -9m0 9l4 -7" fill="none" stroke="#9cc57a" stroke-opacity=".7" stroke-width="1.4" stroke-linecap="round"/><path d="M450.5 550l-3 -7m3 7l0 -9m0 9l4 -7" fill="none" stroke="#2f4f3a" stroke-opacity=".7" stroke-width="1.4" stroke-linecap="round"/><path d="M9.8 513.8l-3 -7m3 7l0 -9m0 9l4 -7" fill="none" stroke="#2f4f3a" stroke-opacity=".7" stroke-width="1.4" stroke-linecap="round"/><path d="M57.8 1150.2l-3 -7m3 7l0 -9m0 9l4 -7" fill="none" stroke="#9cc57a" stroke-opacity=".7" stroke-width="1.4" stroke-linecap="round"/><path d="M380.6 469.8l-3 -7m3 7l0 -9m0 9l4 -7" fill="none" stroke="#9cc57a" stroke-opacity=".7" stroke-width="1.4" stroke-linecap="round"/><path d="M145.8 1028.5l-3 -7m3 7l0 -9m0 9l4 -7" fill="none" stroke="#9cc57a" stroke-opacity=".7" stroke-width="1.4" stroke-linecap="round"/><path d="M471.7 1054.2l-3 -7m3 7l0 -9m0 9l4 -7" fill="none" stroke="#2f4f3a" stroke-opacity=".7" stroke-width="1.4" stroke-linecap="round"/><g transform="translate(26 520)"><path d="M-2.2 0C-1.1 -15.4 4.4 -24.2 1.1 -37.4L4.4 -37.4C7.7 -24.2 3.3 -13.2 3.3 0Z" fill="#6e4430" stroke="#1b2229" stroke-width="1.6" stroke-linejoin="round"/><path d="M-19.8 -29.9Q-12.8 -40.7 -2.2 -41.5Q10.1 -40.7 15.4 -29.9Q-2.2 -26.1 -19.8 -29.9Z" fill="#3f6a45" stroke="#1b2229" stroke-width="1.6" stroke-linejoin="round"/><path d="M-11 -35.7Q-2.2 -39.5 4 -36.8" fill="none" stroke="#b9d98f" stroke-opacity=".55" stroke-width="1.4" stroke-linecap="round"/><path d="M-9.9 -41.4Q-4.2 -50.6 4.4 -51.3Q14.4 -50.6 18.7 -41.4Q4.4 -38.1 -9.9 -41.4Z" fill="#5b8a55" stroke="#1b2229" stroke-width="1.6" stroke-linejoin="round"/><path d="M-2.7 -46.3Q4.4 -49.6 9.4 -47.3" fill="none" stroke="#b9d98f" stroke-opacity=".55" stroke-width="1.4" stroke-linecap="round"/><path d="M-9.9 -51.7Q-5.9 -59.4 0 -59.9Q6.9 -59.4 9.9 -51.7Q0 -48.9 -9.9 -51.7Z" fill="#5b8a55" stroke="#1b2229" stroke-width="1.6" stroke-linejoin="round"/><path d="M-4.9 -55.8Q0 -58.6 3.5 -56.6" fill="none" stroke="#b9d98f" stroke-opacity=".55" stroke-width="1.4" stroke-linecap="round"/></g><g transform="translate(576 540)"><path d="M-2.4 0C-1.2 -16.8 4.8 -26.4 1.2 -40.8L4.8 -40.8C8.4 -26.4 3.6 -14.4 3.6 0Z" fill="#6e4430" stroke="#1b2229" stroke-width="1.6" stroke-linejoin="round"/><path d="M-21.6 -32.6Q-13.9 -44.4 -2.4 -45.2Q11 -44.4 16.8 -32.6Q-2.4 -28.4 -21.6 -32.6Z" fill="#3f6a45" stroke="#1b2229" stroke-width="1.6" stroke-linejoin="round"/><path d="M-12 -38.9Q-2.4 -43.1 4.3 -40.2" fill="none" stroke="#b9d98f" stroke-opacity=".55" stroke-width="1.4" stroke-linecap="round"/><path d="M-10.8 -45.1Q-4.6 -55.2 4.8 -55.9Q15.7 -55.2 20.4 -45.1Q4.8 -41.5 -10.8 -45.1Z" fill="#5b8a55" stroke="#1b2229" stroke-width="1.6" stroke-linejoin="round"/><path d="M-3 -50.5Q4.8 -54.1 10.3 -51.6" fill="none" stroke="#b9d98f" stroke-opacity=".55" stroke-width="1.4" stroke-linecap="round"/><path d="M-10.8 -56.4Q-6.5 -64.8 0 -65.4Q7.6 -64.8 10.8 -56.4Q0 -53.4 -10.8 -56.4Z" fill="#5b8a55" stroke="#1b2229" stroke-width="1.6" stroke-linejoin="round"/><path d="M-5.4 -60.9Q0 -63.9 3.8 -61.8" fill="none" stroke="#b9d98f" stroke-opacity=".55" stroke-width="1.4" stroke-linecap="round"/></g><g transform="translate(18 700)"><path d="M-2.6 0C-1.3 -18.2 5.2 -28.6 1.3 -44.2L5.2 -44.2C9.1 -28.6 3.9 -15.6 3.9 0Z" fill="#6e4430" stroke="#1b2229" stroke-width="1.6" stroke-linejoin="round"/><path d="M-23.4 -35.4Q-15.1 -48.1 -2.6 -49Q12 -48.1 18.2 -35.4Q-2.6 -30.8 -23.4 -35.4Z" fill="#3f6a45" stroke="#1b2229" stroke-width="1.6" stroke-linejoin="round"/><path d="M-13 -42.2Q-2.6 -46.7 4.7 -43.5" fill="none" stroke="#b9d98f" stroke-opacity=".55" stroke-width="1.4" stroke-linecap="round"/><path d="M-11.7 -48.9Q-4.9 -59.8 5.2 -60.6Q17 -59.8 22.1 -48.9Q5.2 -45 -11.7 -48.9Z" fill="#5b8a55" stroke="#1b2229" stroke-width="1.6" stroke-linejoin="round"/><path d="M-3.3 -54.7Q5.2 -58.6 11.1 -55.9" fill="none" stroke="#b9d98f" stroke-opacity=".55" stroke-width="1.4" stroke-linecap="round"/><path d="M-11.7 -61.1Q-7 -70.2 0 -70.9Q8.2 -70.2 11.7 -61.1Q0 -57.8 -11.7 -61.1Z" fill="#5b8a55" stroke="#1b2229" stroke-width="1.6" stroke-linejoin="round"/><path d="M-5.9 -66Q0 -69.2 4.1 -66.9" fill="none" stroke="#b9d98f" stroke-opacity=".55" stroke-width="1.4" stroke-linecap="round"/></g><g transform="translate(585 700)"><path d="M-2.6 0C-1.3 -18.2 5.2 -28.6 1.3 -44.2L5.2 -44.2C9.1 -28.6 3.9 -15.6 3.9 0Z" fill="#6e4430" stroke="#1b2229" stroke-width="1.6" stroke-linejoin="round"/><path d="M-23.4 -35.4Q-15.1 -48.1 -2.6 -49Q12 -48.1 18.2 -35.4Q-2.6 -30.8 -23.4 -35.4Z" fill="#3f6a45" stroke="#1b2229" stroke-width="1.6" stroke-linejoin="round"/><path d="M-13 -42.2Q-2.6 -46.7 4.7 -43.5" fill="none" stroke="#b9d98f" stroke-opacity=".55" stroke-width="1.4" stroke-linecap="round"/><path d="M-11.7 -48.9Q-4.9 -59.8 5.2 -60.6Q17 -59.8 22.1 -48.9Q5.2 -45 -11.7 -48.9Z" fill="#5b8a55" stroke="#1b2229" stroke-width="1.6" stroke-linejoin="round"/><path d="M-3.3 -54.7Q5.2 -58.6 11.1 -55.9" fill="none" stroke="#b9d98f" stroke-opacity=".55" stroke-width="1.4" stroke-linecap="round"/><path d="M-11.7 -61.1Q-7 -70.2 0 -70.9Q8.2 -70.2 11.7 -61.1Q0 -57.8 -11.7 -61.1Z" fill="#5b8a55" stroke="#1b2229" stroke-width="1.6" stroke-linejoin="round"/><path d="M-5.9 -66Q0 -69.2 4.1 -66.9" fill="none" stroke="#b9d98f" stroke-opacity=".55" stroke-width="1.4" stroke-linecap="round"/></g><g transform="translate(210 520)"><path d="M-1.6 0C-0.8 -11.2 3.2 -17.6 0.8 -27.2L3.2 -27.2C5.6 -17.6 2.4 -9.6 2.4 0Z" fill="#6e4430" stroke="#1b2229" stroke-width="1.6" stroke-linejoin="round"/><path d="M-14.4 -21.8Q-9.3 -29.6 -1.6 -30.2Q7.4 -29.6 11.2 -21.8Q-1.6 -19 -14.4 -21.8Z" fill="#3f6a45" stroke="#1b2229" stroke-width="1.6" stroke-linejoin="round"/><path d="M-8 -26Q-1.6 -28.8 2.9 -26.8" fill="none" stroke="#b9d98f" stroke-opacity=".55" stroke-width="1.4" stroke-linecap="round"/><path d="M-7.2 -30.1Q-3 -36.8 3.2 -37.3Q10.5 -36.8 13.6 -30.1Q3.2 -27.7 -7.2 -30.1Z" fill="#5b8a55" stroke="#1b2229" stroke-width="1.6" stroke-linejoin="round"/><path d="M-2 -33.7Q3.2 -36.1 6.8 -34.4" fill="none" stroke="#b9d98f" stroke-opacity=".55" stroke-width="1.4" stroke-linecap="round"/><path d="M-7.2 -37.6Q-4.3 -43.2 0 -43.6Q5 -43.2 7.2 -37.6Q0 -35.6 -7.2 -37.6Z" fill="#5b8a55" stroke="#1b2229" stroke-width="1.6" stroke-linejoin="round"/><path d="M-3.6 -40.6Q0 -42.6 2.5 -41.2" fill="none" stroke="#b9d98f" stroke-opacity=".55" stroke-width="1.4" stroke-linecap="round"/></g><g transform="translate(400 470)"><path d="M-1.4 0C-0.7 -9.8 2.8 -15.4 0.7 -23.8L2.8 -23.8C4.9 -15.4 2.1 -8.4 2.1 0Z" fill="#6e4430" stroke="#1b2229" stroke-width="1.6" stroke-linejoin="round"/><path d="M-12.6 -19Q-8.1 -25.9 -1.4 -26.4Q6.4 -25.9 9.8 -19Q-1.4 -16.6 -12.6 -19Z" fill="#3f6a45" stroke="#1b2229" stroke-width="1.6" stroke-linejoin="round"/><path d="M-7 -22.7Q-1.4 -25.2 2.5 -23.4" fill="none" stroke="#b9d98f" stroke-opacity=".55" stroke-width="1.4" stroke-linecap="round"/><path d="M-6.3 -26.3Q-2.7 -32.2 2.8 -32.6Q9.2 -32.2 11.9 -26.3Q2.8 -24.2 -6.3 -26.3Z" fill="#5b8a55" stroke="#1b2229" stroke-width="1.6" stroke-linejoin="round"/><path d="M-1.7 -29.5Q2.8 -31.6 6 -30.1" fill="none" stroke="#b9d98f" stroke-opacity=".55" stroke-width="1.4" stroke-linecap="round"/><path d="M-6.3 -32.9Q-3.8 -37.8 0 -38.1Q4.4 -37.8 6.3 -32.9Q0 -31.1 -6.3 -32.9Z" fill="#5b8a55" stroke="#1b2229" stroke-width="1.6" stroke-linejoin="round"/><path d="M-3.1 -35.5Q0 -37.3 2.2 -36" fill="none" stroke="#b9d98f" stroke-opacity=".55" stroke-width="1.4" stroke-linecap="round"/></g><g transform="translate(470 900)"><path d="M-1.8 0C-0.9 -12.6 3.6 -19.8 0.9 -30.6L3.6 -30.6C6.3 -19.8 2.7 -10.8 2.7 0Z" fill="#6e4430" stroke="#1b2229" stroke-width="1.6" stroke-linejoin="round"/><path d="M-16.2 -24.5Q-10.4 -33.3 -1.8 -33.9Q8.3 -33.3 12.6 -24.5Q-1.8 -21.3 -16.2 -24.5Z" fill="#3f6a45" stroke="#1b2229" stroke-width="1.6" stroke-linejoin="round"/><path d="M-9 -29.2Q-1.8 -32.4 3.2 -30.1" fill="none" stroke="#b9d98f" stroke-opacity=".55" stroke-width="1.4" stroke-linecap="round"/><path d="M-8.1 -33.8Q-3.4 -41.4 3.6 -41.9Q11.8 -41.4 15.3 -33.8Q3.6 -31.1 -8.1 -33.8Z" fill="#5b8a55" stroke="#1b2229" stroke-width="1.6" stroke-linejoin="round"/><path d="M-2.3 -37.9Q3.6 -40.6 7.7 -38.7" fill="none" stroke="#b9d98f" stroke-opacity=".55" stroke-width="1.4" stroke-linecap="round"/><path d="M-8.1 -42.3Q-4.9 -48.6 0 -49.1Q5.7 -48.6 8.1 -42.3Q0 -40.1 -8.1 -42.3Z" fill="#5b8a55" stroke="#1b2229" stroke-width="1.6" stroke-linejoin="round"/><path d="M-4 -45.7Q0 -47.9 2.8 -46.3" fill="none" stroke="#b9d98f" stroke-opacity=".55" stroke-width="1.4" stroke-linecap="round"/></g><g transform="translate(590 930)"><path d="M-2.6 0C-1.3 -18.2 5.2 -28.6 1.3 -44.2L5.2 -44.2C9.1 -28.6 3.9 -15.6 3.9 0Z" fill="#6e4430" stroke="#1b2229" stroke-width="1.6" stroke-linejoin="round"/><path d="M-23.4 -35.4Q-15.1 -48.1 -2.6 -49Q12 -48.1 18.2 -35.4Q-2.6 -30.8 -23.4 -35.4Z" fill="#3f6a45" stroke="#1b2229" stroke-width="1.6" stroke-linejoin="round"/><path d="M-13 -42.2Q-2.6 -46.7 4.7 -43.5" fill="none" stroke="#b9d98f" stroke-opacity=".55" stroke-width="1.4" stroke-linecap="round"/><path d="M-11.7 -48.9Q-4.9 -59.8 5.2 -60.6Q17 -59.8 22.1 -48.9Q5.2 -45 -11.7 -48.9Z" fill="#5b8a55" stroke="#1b2229" stroke-width="1.6" stroke-linejoin="round"/><path d="M-3.3 -54.7Q5.2 -58.6 11.1 -55.9" fill="none" stroke="#b9d98f" stroke-opacity=".55" stroke-width="1.4" stroke-linecap="round"/><path d="M-11.7 -61.1Q-7 -70.2 0 -70.9Q8.2 -70.2 11.7 -61.1Q0 -57.8 -11.7 -61.1Z" fill="#5b8a55" stroke="#1b2229" stroke-width="1.6" stroke-linejoin="round"/><path d="M-5.9 -66Q0 -69.2 4.1 -66.9" fill="none" stroke="#b9d98f" stroke-opacity=".55" stroke-width="1.4" stroke-linecap="round"/></g><g transform="translate(12 1060)"><path d="M-2.8 0C-1.4 -19.6 5.6 -30.8 1.4 -47.6L5.6 -47.6C9.8 -30.8 4.2 -16.8 4.2 0Z" fill="#6e4430" stroke="#1b2229" stroke-width="1.6" stroke-linejoin="round"/><path d="M-25.2 -38.1Q-16.2 -51.8 -2.8 -52.8Q12.9 -51.8 19.6 -38.1Q-2.8 -33.2 -25.2 -38.1Z" fill="#3f6a45" stroke="#1b2229" stroke-width="1.6" stroke-linejoin="round"/><path d="M-14 -45.4Q-2.8 -50.3 5 -46.9" fill="none" stroke="#b9d98f" stroke-opacity=".55" stroke-width="1.4" stroke-linecap="round"/><path d="M-12.6 -52.6Q-5.3 -64.4 5.6 -65.2Q18.3 -64.4 23.8 -52.6Q5.6 -48.4 -12.6 -52.6Z" fill="#5b8a55" stroke="#1b2229" stroke-width="1.6" stroke-linejoin="round"/><path d="M-3.5 -58.9Q5.6 -63.1 12 -60.2" fill="none" stroke="#b9d98f" stroke-opacity=".55" stroke-width="1.4" stroke-linecap="round"/><path d="M-12.6 -65.8Q-7.6 -75.6 0 -76.3Q8.8 -75.6 12.6 -65.8Q0 -62.3 -12.6 -65.8Z" fill="#5b8a55" stroke="#1b2229" stroke-width="1.6" stroke-linejoin="round"/><path d="M-6.3 -71Q0 -74.5 4.4 -72.1" fill="none" stroke="#b9d98f" stroke-opacity=".55" stroke-width="1.4" stroke-linecap="round"/></g><g transform="translate(396 1180)"><path d="M-2.2 0C-1.1 -15.4 4.4 -24.2 1.1 -37.4L4.4 -37.4C7.7 -24.2 3.3 -13.2 3.3 0Z" fill="#6e4430" stroke="#1b2229" stroke-width="1.6" stroke-linejoin="round"/><path d="M-19.8 -29.9Q-12.8 -40.7 -2.2 -41.5Q10.1 -40.7 15.4 -29.9Q-2.2 -26.1 -19.8 -29.9Z" fill="#3f6a45" stroke="#1b2229" stroke-width="1.6" stroke-linejoin="round"/><path d="M-11 -35.7Q-2.2 -39.5 4 -36.8" fill="none" stroke="#b9d98f" stroke-opacity=".55" stroke-width="1.4" stroke-linecap="round"/><path d="M-9.9 -41.4Q-4.2 -50.6 4.4 -51.3Q14.4 -50.6 18.7 -41.4Q4.4 -38.1 -9.9 -41.4Z" fill="#5b8a55" stroke="#1b2229" stroke-width="1.6" stroke-linejoin="round"/><path d="M-2.7 -46.3Q4.4 -49.6 9.4 -47.3" fill="none" stroke="#b9d98f" stroke-opacity=".55" stroke-width="1.4" stroke-linecap="round"/><path d="M-9.9 -51.7Q-5.9 -59.4 0 -59.9Q6.9 -59.4 9.9 -51.7Q0 -48.9 -9.9 -51.7Z" fill="#5b8a55" stroke="#1b2229" stroke-width="1.6" stroke-linejoin="round"/><path d="M-4.9 -55.8Q0 -58.6 3.5 -56.6" fill="none" stroke="#b9d98f" stroke-opacity=".55" stroke-width="1.4" stroke-linecap="round"/></g><g transform="translate(380 560)"><ellipse cx="0" cy="0" rx="9" ry="3.6" fill="#000" fill-opacity=".18"/><circle cx="-4.5" cy="-5.4" r="6.3" fill="#3f6a45" stroke="#1b2229" stroke-width="1.6" stroke-linejoin="round"/><circle cx="4.5" cy="-6.3" r="6.8" fill="#5b8a55" stroke="#1b2229" stroke-width="1.6" stroke-linejoin="round"/><circle cx="0" cy="-10.8" r="6.3" fill="#86b36e" stroke="#1b2229" stroke-width="1.6" stroke-linejoin="round"/></g><g transform="translate(224 620)"><ellipse cx="0" cy="0" rx="9" ry="3.6" fill="#000" fill-opacity=".18"/><circle cx="-4.5" cy="-5.4" r="6.3" fill="#3f6a45" stroke="#1b2229" stroke-width="1.6" stroke-linejoin="round"/><circle cx="4.5" cy="-6.3" r="6.8" fill="#5b8a55" stroke="#1b2229" stroke-width="1.6" stroke-linejoin="round"/><circle cx="0" cy="-10.8" r="6.3" fill="#86b36e" stroke="#1b2229" stroke-width="1.6" stroke-linejoin="round"/></g><g transform="translate(420 860)"><ellipse cx="0" cy="0" rx="10" ry="4" fill="#000" fill-opacity=".18"/><circle cx="-5" cy="-6" r="7" fill="#3f6a45" stroke="#1b2229" stroke-width="1.6" stroke-linejoin="round"/><circle cx="5" cy="-7" r="7.5" fill="#5b8a55" stroke="#1b2229" stroke-width="1.6" stroke-linejoin="round"/><circle cx="0" cy="-12" r="7" fill="#86b36e" stroke="#1b2229" stroke-width="1.6" stroke-linejoin="round"/></g><g transform="translate(180 900)"><ellipse cx="0" cy="0" rx="9" ry="3.6" fill="#000" fill-opacity=".18"/><circle cx="-4.5" cy="-5.4" r="6.3" fill="#3f6a45" stroke="#1b2229" stroke-width="1.6" stroke-linejoin="round"/><circle cx="4.5" cy="-6.3" r="6.8" fill="#5b8a55" stroke="#1b2229" stroke-width="1.6" stroke-linejoin="round"/><circle cx="0" cy="-10.8" r="6.3" fill="#86b36e" stroke="#1b2229" stroke-width="1.6" stroke-linejoin="round"/></g><g transform="translate(560 1140)"><ellipse cx="0" cy="0" rx="11" ry="4.4" fill="#000" fill-opacity=".18"/><circle cx="-5.5" cy="-6.6" r="7.7" fill="#3f6a45" stroke="#1b2229" stroke-width="1.6" stroke-linejoin="round"/><circle cx="5.5" cy="-7.7" r="8.3" fill="#5b8a55" stroke="#1b2229" stroke-width="1.6" stroke-linejoin="round"/><circle cx="0" cy="-13.2" r="7.7" fill="#86b36e" stroke="#1b2229" stroke-width="1.6" stroke-linejoin="round"/></g><g transform="translate(240 1180)"><ellipse cx="0" cy="0" rx="10" ry="4" fill="#000" fill-opacity=".18"/><circle cx="-5" cy="-6" r="7" fill="#3f6a45" stroke="#1b2229" stroke-width="1.6" stroke-linejoin="round"/><circle cx="5" cy="-7" r="7.5" fill="#5b8a55" stroke="#1b2229" stroke-width="1.6" stroke-linejoin="round"/><circle cx="0" cy="-12" r="7" fill="#86b36e" stroke="#1b2229" stroke-width="1.6" stroke-linejoin="round"/></g><path d="M266 820h8v-14h-8z" fill="#8f9497" stroke="#1b2229" stroke-width="1.6" stroke-linejoin="round"/><path d="M263 806h14l-3 -8h-8z" fill="#b9bcb8" stroke="#1b2229" stroke-width="1.6" stroke-linejoin="round"/><circle cx="270" cy="802" r="2.6" fill="#ffe08a"/><path d="M326 820h8v-14h-8z" fill="#8f9497" stroke="#1b2229" stroke-width="1.6" stroke-linejoin="round"/><path d="M323 806h14l-3 -8h-8z" fill="#b9bcb8" stroke="#1b2229" stroke-width="1.6" stroke-linejoin="round"/><circle cx="330" cy="802" r="2.6" fill="#ffe08a"/><path d="M0 0H600V1200H0Z" fill="url(#vig)"/></svg>