<svg xmlns="http://www.w3.org/2000/svg" viewBox="-4 4 188 156"><defs><linearGradient id="wave" x1="0" y1="0" x2="0" y2="1"><stop offset="0" stop-color="#4a86a8" stop-opacity="1"/><stop offset="1" stop-color="#1f3f5b" stop-opacity="1"/></linearGradient></defs><path d="M152 96L158 76L166 94Z" fill="#4fb3a4" stroke="#1b2229" stroke-width="1.4" stroke-linejoin="round" stroke-linecap="round"/><path d="M130 79.41986545873549L136 59.41986545873549L144 77.41986545873549Z" fill="#4fb3a4" stroke="#1b2229" stroke-width="1.4" stroke-linejoin="round" stroke-linecap="round"/><path d="M108 66.88098270668723L114 46.880982706687234L122 64.88098270668723Z" fill="#4fb3a4" stroke="#1b2229" stroke-width="1.4" stroke-linejoin="round" stroke-linecap="round"/><path d="M86 60.880982706687234L92 40.880982706687234L100 58.880982706687234Z" fill="#4fb3a4" stroke="#1b2229" stroke-width="1.4" stroke-linejoin="round" stroke-linecap="round"/><path d="M64 61.41986545873549L70 41.41986545873549L78 59.41986545873549Z" fill="#4fb3a4" stroke="#1b2229" stroke-width="1.4" stroke-linejoin="round" stroke-linecap="round"/><path d="M42 66L48 46L56 64Z" fill="#4fb3a4" stroke="#1b2229" stroke-width="1.4" stroke-linejoin="round" stroke-linecap="round"/><path d="M170 110C150 70 120 120 96 96C74 74 60 50 40 44" fill="none" stroke="#1b2229" stroke-width="24.4" stroke-linecap="round" stroke-linejoin="round"/><path d="M170 110C150 70 120 120 96 96C74 74 60 50 40 44" fill="none" stroke="#4a86a8" stroke-width="20" stroke-linecap="round" stroke-linejoin="round"/><path d="M170 110C150 70 120 120 96 96C74 74 60 50 40 44" fill="none" stroke="#8dbad2" stroke-width="11" stroke-dasharray="2.5 5" stroke-linecap="round" stroke-opacity=".8"/><path d="M52 44C46 26 24 22 10 32C2 38 0 46 4 52C18 56 40 56 52 44Z" fill="#4a86a8" stroke="#1b2229" stroke-width="2.2" stroke-linejoin="round" stroke-linecap="round"/><path d="M34 26C36 14 46 8 56 8C48 14 46 20 46 28Z" fill="#4fb3a4" stroke="#1b2229" stroke-width="2.2" stroke-linejoin="round" stroke-linecap="round"/><path d="M8 50C0 60 4 72 14 76M16 54C12 62 16 70 24 72" fill="none" stroke="#8fd9c8" stroke-width="2.4" stroke-linecap="round"/><path d="M6 50l4 5 3 -5 3 5" fill="#fff" stroke="#1b2229" stroke-width="1.4" stroke-linejoin="round" stroke-linecap="round"/><circle cx="26" cy="38" r="6.4" fill="#ffe08a" fill-opacity=".35"/><circle cx="26" cy="38" r="3.4" fill="#ffe08a" stroke="#1b2229" stroke-width="1.4" stroke-linejoin="round" stroke-linecap="round"/><path d="M26 35.6v4.8" stroke="#1b2229" stroke-width="1.4" stroke-linecap="round"/><path d="M20 150C40 120 60 140 72 124C80 140 100 120 116 132C128 118 150 130 176 116L180 156H16Z" fill="url(#wave)" stroke="#1b2229" stroke-width="2.2" stroke-linejoin="round" stroke-linecap="round"/><path d="M40 134q8 -8 16 0M96 132q8 -8 16 0M140 128q8 -8 16 0" fill="none" stroke="#d4f5ec" stroke-width="2" stroke-linecap="round"/></svg>