<svg xmlns="http://www.w3.org/2000/svg" viewBox="-4 -4 184 168"><defs><radialGradient id="g"><stop offset="0" stop-color="#f5a340" stop-opacity="0.55"/><stop offset="1" stop-color="#f5a340" stop-opacity="0"/></radialGradient></defs><ellipse cx="84" cy="80" rx="84" ry="70" fill="url(#g)"/><path d="M96 70C110 40 140 16 170 10C160 24 166 30 150 40C164 40 160 50 144 56C154 60 146 70 120 80Z" fill="#a8391f" stroke="#1b2229" stroke-width="2.2" stroke-linejoin="round" stroke-linecap="round"/><path d="M110 96C130 112 150 140 176 150C160 150 150 146 142 140C150 156 140 158 130 146C132 160 120 156 116 140C112 130 104 116 100 104Z" fill="#e0672d" stroke="#1b2229" stroke-width="2.2" stroke-linejoin="round" stroke-linecap="round"/><path d="M118 116C130 128 140 138 156 146" fill="none" stroke="#ffe08a" stroke-width="2" stroke-linecap="round"/><path d="M50 72C60 56 90 58 106 72C118 84 112 104 94 108C74 112 54 100 50 72Z" fill="#e0672d" stroke="#1b2229" stroke-width="2.2" stroke-linejoin="round" stroke-linecap="round"/><path d="M56 84C66 96 82 102 96 100" fill="none" stroke="#ffe08a" stroke-width="2.2" stroke-linecap="round"/><path d="M70 70C60 36 70 10 96 0C92 14 100 16 92 28C104 22 108 30 98 40C110 38 110 50 96 56C104 60 96 70 84 76Z" fill="#f5a340" stroke="#1b2229" stroke-width="2.2" stroke-linejoin="round" stroke-linecap="round"/><path d="M80 64C76 44 82 24 94 10M86 66C88 52 96 40 104 36" fill="none" stroke="#ffe08a" stroke-width="1.6" stroke-linecap="round"/><path d="M58 66C50 50 34 48 26 56C22 60 14 62 8 66C16 70 24 72 30 74C42 80 56 78 58 66Z" fill="#e0672d" stroke="#1b2229" stroke-width="2.2" stroke-linejoin="round" stroke-linecap="round"/><path d="M8 66L20 62L22 70Z" fill="#d8b168" stroke="#1b2229" stroke-width="1.4" stroke-linejoin="round" stroke-linecap="round"/><path d="M34 52C30 38 36 30 44 28C40 36 42 42 46 48ZM42 50C42 40 50 34 56 34C52 40 52 46 54 52Z" fill="#ffe08a" stroke="#1b2229" stroke-width="2.2" stroke-linejoin="round" stroke-linecap="round"/><circle cx="32" cy="60" r="5.8" fill="#fff1c9" fill-opacity=".35"/><circle cx="32" cy="60" r="2.8" fill="#fff1c9" stroke="#1b2229" stroke-width="1.4" stroke-linejoin="round" stroke-linecap="round"/><path d="M32 58.2v3.5999999999999996" stroke="#1b2229" stroke-width="1.4" stroke-linecap="round"/><path d="M74 108l-4 14M88 108l2 14" stroke="#1b2229" stroke-width="3.4" stroke-linecap="round"/></svg>