<svg xmlns="http://www.w3.org/2000/svg" viewBox="-6 -7.4 132 213.4"><style>.a-flicker{animation:aFlk 1.7s ease-in-out infinite}.a-pulse{animation:aPls 3s ease-in-out infinite}.a-smoke{transform-box:fill-box;transform-origin:50% 100%;animation:aSmk 4.2s linear infinite}.a-sway{transform-box:fill-box;transform-origin:0 0;animation:aSway 2.6s ease-in-out infinite}.a-flow{animation:aFlow 1.4s linear infinite}.a-float{animation:aFlt 3.4s ease-in-out infinite}.a-spin{transform-box:fill-box;transform-origin:center;animation:aSpin 14s linear infinite}.a-rise{animation:aRise 3.6s ease-out infinite}.a-drift{animation:aDrift 26s ease-in-out infinite}@keyframes aFlk{0%,100%{opacity:1}18%{opacity:.62}32%{opacity:.95}47%{opacity:.7}70%{opacity:1}85%{opacity:.78}}@keyframes aPls{0%,100%{opacity:.5}50%{opacity:1}}@keyframes aSmk{0%{opacity:0;transform:translateY(4px) scale(.9)}20%{opacity:.9}100%{opacity:0;transform:translateY(-14px) scale(1.25)}}@keyframes aSway{0%,100%{transform:skewY(-3deg) scaleX(1)}50%{transform:skewY(4deg) scaleX(.94)}}@keyframes aFlow{to{stroke-dashoffset:-20}}@keyframes aFlt{0%,100%{transform:translateY(0)}50%{transform:translateY(-3px)}}@keyframes aSpin{to{transform:rotate(360deg)}}@keyframes aRise{0%{opacity:0;transform:translateY(6px)}25%{opacity:1}100%{opacity:0;transform:translateY(-22px)}}@keyframes aDrift{0%,100%{transform:translateX(0)}50%{transform:translateX(24px)}}@media (prefers-reduced-motion:reduce){*{animation:none!important}}</style><defs><linearGradient id="wansvg1g0" x1="0" y1="0" x2="1" y2="0"><stop offset="0" stop-color="#aeb1b4"/><stop offset="0.35" stop-color="#f0f1f1"/><stop offset="0.62" stop-color="#eef0f2"/><stop offset="1" stop-color="#9ea1a4"/></linearGradient><radialGradient id="wansvg1r1"><stop offset="0" stop-color="#8dbad2" stop-opacity="0.42"/><stop offset="1" stop-color="#8dbad2" stop-opacity="0"/></radialGradient><linearGradient id="wansvg1g2" x1="0" y1="0" x2="0" y2="1"><stop offset="0" stop-color="#303538"/><stop offset="1" stop-color="#12181e"/></linearGradient><linearGradient id="wansvg1g3" x1="0" y1="0" x2="0" y2="1"><stop offset="0" stop-color="#cce5ed"/><stop offset="1" stop-color="#a4c1cd"/></linearGradient><linearGradient id="wansvg1g4" x1="0" y1="0" x2="1" y2="0"><stop offset="0" stop-color="#b6c8d5"/><stop offset="0.5" stop-color="#cedfea"/><stop offset="1" stop-color="#a7b7c3"/></linearGradient><linearGradient id="wansvg1g5" x1="0" y1="0" x2="0" y2="1"><stop offset="0" stop-color="#4d728b"/><stop offset="1" stop-color="#274b66"/></linearGradient><linearGradient id="wansvg1g6" x1="0" y1="0" x2="0" y2="1"><stop offset="0" stop-color="#d4f5ec"/><stop offset="1" stop-color="#2f7f78"/></linearGradient><linearGradient id="wansvg1g7" x1="0" y1="0" x2="0" y2="1"><stop offset="0" stop-color="#f3dbc3"/><stop offset="1" stop-color="#e3cab3"/></linearGradient><linearGradient id="wansvg1g8" x1="0" y1="0" x2="0" y2="1"><stop offset="0" stop-color="#1c120e"/><stop offset="1" stop-color="#6b4a33"/></linearGradient><linearGradient id="wansvg1g9" x1="0" y1="0" x2="0" y2="1"><stop offset="0" stop-color="#3e4244"/><stop offset="1" stop-color="#141a20"/></linearGradient><radialGradient id="wansvg1r10"><stop offset="0" stop-color="#f0d596" stop-opacity="0.7"/><stop offset="1" stop-color="#f0d596" stop-opacity="0"/></radialGradient></defs><g class="a-pulse" ><ellipse cx="60" cy="110" rx="62" ry="92" fill="url(#wansvg1r1)"/></g><g class="a-rise" ><circle cx="18" cy="70" r="1.2" fill="#c6d9dd" fill-opacity=".9"/></g><g class="a-rise" style="animation-delay:-0.7s" ><circle cx="104" cy="60" r="1" fill="#c6d9dd" fill-opacity=".9"/></g><g class="a-rise" style="animation-delay:-1.4s" ><circle cx="96" cy="140" r="1.4" fill="#c6d9dd" fill-opacity=".9"/></g><g class="a-rise" style="animation-delay:-2.1s" ><circle cx="22" cy="150" r="1" fill="#c6d9dd" fill-opacity=".9"/></g><g class="a-rise" style="animation-delay:-2.8s" ><circle cx="110" cy="100" r="0.8" fill="#c6d9dd" fill-opacity=".9"/></g><ellipse cx="60" cy="193" rx="34" ry="5.5" fill="#000" fill-opacity=".3"/><path d="M47 24C38 48 38 92 42 126C50 132 70 132 78 126C82 92 82 48 73 24Z" fill="url(#wansvg1g2)" stroke="#141b21" stroke-width="1.1" stroke-linejoin="round" stroke-linecap="round"/><path d="M50 40C46 70 46 100 48 124" fill="none" stroke="#5b5d5c" stroke-opacity=".5" stroke-width=".6"/><path d="M70 40C74 70 74 100 72 124" fill="none" stroke="#5b5d5c" stroke-opacity=".5" stroke-width=".6"/><path d="M60 30C58 70 60 100 60 128" fill="none" stroke="#5b5d5c" stroke-opacity=".5" stroke-width=".6"/><path d="M44 62C26 72 18 104 24 132C28 150 20 166 12 176C22 170 32 156 30 136C26 110 32 84 46 72Z" fill="url(#wansvg1g3)" stroke="#141b21" stroke-width="0.7" stroke-linejoin="round" stroke-linecap="round"/><path d="M76 62C94 72 102 104 96 132C92 150 100 166 108 176C98 170 88 156 90 136C94 110 88 84 74 72Z" fill="url(#wansvg1g3)" stroke="#141b21" stroke-width="0.7" stroke-linejoin="round" stroke-linecap="round"/><path d="M47 110C45 140 41 168 36 190Q60 196 84 190C79 168 75 140 73 110Z" fill="url(#wansvg1g4)" stroke="#141b21" stroke-width="1.1" stroke-linejoin="round" stroke-linecap="round"/><path d="M52 118C51 150 50 170 46.6 190" fill="none" stroke="#909faa" stroke-opacity=".45" stroke-width=".6"/><path d="M58 118C57 150 56 170 54.4 190" fill="none" stroke="#909faa" stroke-opacity=".45" stroke-width=".6"/><path d="M64 118C63 150 62 170 62.2 190" fill="none" stroke="#909faa" stroke-opacity=".45" stroke-width=".6"/><path d="M70 118C69 150 68 170 70 190" fill="none" stroke="#909faa" stroke-opacity=".45" stroke-width=".6"/><path d="M36 190Q60 196 84 190" fill="none" stroke="#4a86a8" stroke-width="2.4"/><path d="M46 193q0 -4 5 -4q5 0 5 4q-2 1 -5 .5q-3 .5 -5 -.5z" fill="#16202a" stroke="#141b21" stroke-width="0.7" stroke-linejoin="round" stroke-linecap="round"/><path d="M64 193q0 -4 5 -4q5 0 5 4q-2 1 -5 .5q-3 .5 -5 -.5z" fill="#16202a" stroke="#141b21" stroke-width="0.7" stroke-linejoin="round" stroke-linecap="round"/><path d="M44 54C38 80 36 124 28 186Q40 191 53 190C55 160 57 130 58 104L62 104C63 130 65 160 67 190Q80 191 92 186C84 124 82 80 76 54C70 51 50 51 44 54Z" fill="url(#wansvg1g0)" stroke="#141b21" stroke-width="1.1" stroke-linejoin="round" stroke-linecap="round"/><path d="M40 116C38 140 35 162 33 184" fill="none" stroke="#939699" stroke-opacity=".5" stroke-width=".8"/><path d="M47 108C46 140 46 166 46 188" fill="none" stroke="#939699" stroke-opacity=".5" stroke-width=".8"/><path d="M73 108C74 140 74 166 74 188" fill="none" stroke="#939699" stroke-opacity=".5" stroke-width=".8"/><path d="M80 116C82 140 85 162 87 184" fill="none" stroke="#939699" stroke-opacity=".5" stroke-width=".8"/><path d="M52 70C50 84 50 96 51 104" fill="none" stroke="#939699" stroke-opacity=".5" stroke-width=".8"/><path d="M43 120C41 144 39 164 37 184" fill="none" stroke="#f4f3ef" stroke-opacity=".45" stroke-width=".7"/><path d="M77 122C79 144 81 164 83 184" fill="none" stroke="#f4f3ef" stroke-opacity=".45" stroke-width=".7"/><path d="M58 104C57 130 55 160 53 190" fill="none" stroke="#4a86a8" stroke-width="3"/><path d="M58 104C57 130 55 160 53 190" fill="none" stroke="#f0d596" stroke-opacity=".6" stroke-width=".5"/><path d="M62 104C63 130 65 160 67 190" fill="none" stroke="#4a86a8" stroke-width="3"/><path d="M62 104C63 130 65 160 67 190" fill="none" stroke="#f0d596" stroke-opacity=".6" stroke-width=".5"/><path d="M28 186Q40 191 53 190" fill="none" stroke="#4a86a8" stroke-width="4.4"/><path d="M28 186Q40 191 53 190" fill="none" stroke="#d8b168" stroke-width=".6" stroke-dasharray="2 1.6"/><path d="M67 190Q80 191 92 186" fill="none" stroke="#4a86a8" stroke-width="4.4"/><path d="M67 190Q80 191 92 186" fill="none" stroke="#d8b168" stroke-width=".6" stroke-dasharray="2 1.6"/><path d="M32 187.6q2 -2.4 4 0" fill="none" stroke="#f0d596" stroke-width=".6"/><path d="M42 187.6q2 -2.4 4 0" fill="none" stroke="#f0d596" stroke-width=".6"/><path d="M74 187.6q2 -2.4 4 0" fill="none" stroke="#f0d596" stroke-width=".6"/><path d="M84 187.6q2 -2.4 4 0" fill="none" stroke="#f0d596" stroke-width=".6"/><path d="M51 52L60 76L69 52Z" fill="#f7f2e6" stroke="#141b21" stroke-width="0.7" stroke-linejoin="round" stroke-linecap="round"/><path d="M51 52L64 94" fill="none" stroke="#4a86a8" stroke-width="3.6"/><path d="M51 52L64 94" fill="none" stroke="#f0d596" stroke-opacity=".55" stroke-width=".5"/><path d="M69 52L60 74" fill="none" stroke="#4a86a8" stroke-width="3.6"/><path d="M69 52L60 74" fill="none" stroke="#f0d596" stroke-opacity=".55" stroke-width=".5"/><path d="M45 92Q60 97 75 92L75.5 101Q60 106 44.5 101Z" fill="url(#wansvg1g5)" stroke="#141b21" stroke-width="0.7" stroke-linejoin="round" stroke-linecap="round"/><path d="M45.5 95Q60 100 74.5 95" fill="none" stroke="#d8b168" stroke-width=".6"/><path d="M45 99Q60 104 75 99" fill="none" stroke="#d8b168" stroke-width=".6"/><path d="M64 100C60 110 62 124 58 140M66 100C68 112 66 126 70 138" fill="none" stroke="#2e5a7a" stroke-width="2.4" stroke-linecap="round"/><path d="M64 100c-3 -3 -6 -1 -4 2c-3 1 -2 5 2 3c1 3 5 3 5 -1c3 -1 2 -5 -1 -4z" fill="#2e5a7a" stroke="#141b21" stroke-width="0.7" stroke-linejoin="round" stroke-linecap="round"/><circle cx="60" cy="146" r="3.6" fill="url(#wansvg1g6)" stroke="#141b21" stroke-width="0.7" stroke-linejoin="round" stroke-linecap="round"/><circle cx="60" cy="146" r="1.2" fill="#aaadaf"/><path d="M60 150v10M58.6 150l-1 9M61.4 150l1 9" stroke="#9c3a30" stroke-width=".6"/><path d="M45 56C36 62 32 80 30 100C28 116 26 130 27 142Q36 148 46 143C47 128 48 112 50 96C51 84 50 70 48 60Z" fill="url(#wansvg1g0)" stroke="#141b21" stroke-width="1.1" stroke-linejoin="round" stroke-linecap="round"/><path d="M27 142Q36 148 46 143Q37 139 27 142Z" fill="#8dbad2" stroke="#141b21" stroke-width="0.7" stroke-linejoin="round" stroke-linecap="round"/><path d="M27 142Q36 148 46 143" fill="none" stroke="#4a86a8" stroke-width="3"/><path d="M38 70C35 90 33 110 32 132" fill="none" stroke="#939699" stroke-opacity=".5" stroke-width=".8"/><path d="M44 80C42 100 41 118 40 138" fill="none" stroke="#939699" stroke-opacity=".5" stroke-width=".8"/><path d="M75 56C86 60 94 70 98 82C100 90 97 96 92 98L85 94C84 86 80 76 71 70Z" fill="url(#wansvg1g0)" stroke="#141b21" stroke-width="1.1" stroke-linejoin="round" stroke-linecap="round"/><path d="M92 98L85 94Q89 99 92 98Z" fill="#8dbad2" stroke="#141b21" stroke-width="0.7" stroke-linejoin="round" stroke-linecap="round"/><path d="M92 98L85 94" stroke="#4a86a8" stroke-width="3"/><path d="M80 62C86 68 90 76 92 86" fill="none" stroke="#939699" stroke-opacity=".5" stroke-width=".8"/><path d="M89 91q3 -3 6.5 -1q1.4 2 0 4.2q-2 2.6 -5.4 1.4q-2 -1.6 -1.1 -4.6z" fill="#f1d6bd" stroke="#141b21" stroke-width="0.7" stroke-linejoin="round" stroke-linecap="round"/><path d="M93 91.6l2.4 .2M93 93.4l2.2 .3" stroke="#b0917a" stroke-width=".4"/><path d="M56 44L56 53L64 53L64 44Z" fill="#d9b294"/><path d="M56 50Q60 53 64 50" fill="none" stroke="#9b816e" stroke-width=".5"/><path d="M50 30C50 20 70 20 70 30C70 40 66 46 60 47C54 46 50 40 50 30Z" fill="url(#wansvg1g7)" stroke="#141b21" stroke-width="1.1" stroke-linejoin="round" stroke-linecap="round"/><path d="M52.300000000000004 35.2Q55.1 33.300000000000004 57.9 35.1" fill="none" stroke="#141b21" stroke-width="1.05"/><path d="M52.7 35.400000000000006Q55.1 36.800000000000004 57.5 35.400000000000006Q55.1 34 52.7 35.400000000000006Z" fill="#fbf6ef"/><circle cx="55" cy="35.5" r="1.3" fill="url(#wansvg1g8)"/><circle cx="55.4" cy="35" r="0.4" fill="#fff"/><path d="M52.300000000000004 35.1l-1.1 -0.9" stroke="#141b21" stroke-width=".6"/><path d="M52.5 31.6Q55.1 30.200000000000003 57.9 31.300000000000004" fill="none" stroke="#13191f" stroke-width="0.6"/><path d="M62.10000000000001 35.2Q64.9 33.300000000000004 67.7 35.1" fill="none" stroke="#141b21" stroke-width="1.05"/><path d="M62.50000000000001 35.400000000000006Q64.9 36.800000000000004 67.30000000000001 35.400000000000006Q64.9 34 62.50000000000001 35.400000000000006Z" fill="#fbf6ef"/><circle cx="65" cy="35.5" r="1.3" fill="url(#wansvg1g8)"/><circle cx="65.4" cy="35" r="0.4" fill="#fff"/><path d="M67.7 35.1l1.1 -0.9" stroke="#141b21" stroke-width=".6"/><path d="M62.300000000000004 31.6Q64.9 30.200000000000003 67.7 31.300000000000004" fill="none" stroke="#13191f" stroke-width="0.6"/><path d="M60 37.6q.7 1.7 -.4 2.4" fill="none" stroke="#b0917a" stroke-width=".55"/><path d="M58.3 42.4q1.7 -.8 3.4 0q-1.7 1.3 -3.4 0z" fill="#c65440"/><ellipse cx="53.6" cy="39.6" rx="2.3" ry="1.1" fill="#e7836a" fill-opacity=".32"/><ellipse cx="66.4" cy="39.6" rx="2.3" ry="1.1" fill="#e7836a" fill-opacity=".32"/><path d="M48 34C46 20 54 13 61 13C69 13 75 20 72 34C71 28 68 24 64 23C63 27 59 29 55 28C53 30 50 32 48 34Z" fill="url(#wansvg1g9)" stroke="#141b21" stroke-width="1.1" stroke-linejoin="round" stroke-linecap="round"/><path d="M48 30C45 44 46 58 43 72" fill="none" stroke="#141b21" stroke-width="4.6" stroke-linecap="round"/><path d="M48 30C45 44 46 58 43 72" fill="none" stroke="#141a20" stroke-width="3.2" stroke-linecap="round"/><path d="M72 30C75 44 74 58 77 72" fill="none" stroke="#141b21" stroke-width="4.6" stroke-linecap="round"/><path d="M72 30C75 44 74 58 77 72" fill="none" stroke="#141a20" stroke-width="3.2" stroke-linecap="round"/><path d="M52 14C50 2 58 -2 62 -1C68 0 70 8 67 14Z" fill="url(#wansvg1g9)" stroke="#141b21" stroke-width="1.1" stroke-linejoin="round" stroke-linecap="round"/><path d="M54 12Q60 8 66 12" fill="none" stroke="#4a86a8" stroke-width="1.8"/><path d="M64 6l14 -7" stroke="#d8b168" stroke-width="1.2" stroke-linecap="round"/><circle cx="78" cy="-1.4" r="2" fill="#4a86a8" stroke="#141b21" stroke-width="0.7" stroke-linejoin="round" stroke-linecap="round"/><path d="M74 1v8" stroke="#d8b168" stroke-width=".4"/><circle cx="74" cy="10" r="1" fill="#c65440"/><path d="M76 1v11" stroke="#d8b168" stroke-width=".4"/><circle cx="76" cy="13" r="1" fill="#c65440"/><path d="M52 6q-6 2 -6 10" fill="none" stroke="#4a86a8" stroke-width="1.2"/><path d="M55 16Q58 20 58 26" fill="none" stroke="#666866" stroke-opacity=".6" stroke-width=".55"/><path d="M63 16Q66 19 68 24" fill="none" stroke="#666866" stroke-opacity=".6" stroke-width=".55"/><path d="M56 2Q60 -1 64 1" fill="none" stroke="#666866" stroke-opacity=".6" stroke-width=".55"/><circle cx="96" cy="84" r="12" fill="url(#wansvg1r10)"/><g class="a-float" style="animation-delay:-1.5s" ><g transform="translate(97 80) rotate(16) scale(0.85)"><path d="M-5 -11h10v22h-10z" fill="#f0d596" stroke="#141b21" stroke-width="0.7" stroke-linejoin="round" stroke-linecap="round"/><path d="M-4 -10h8v20h-8z" fill="none" stroke="#9c3a30" stroke-width=".5"/><path d="M0 -8v14M-2.6 -5h5.2M-2.6 -1h5.2M-2 3l2 2 2 -2" fill="none" stroke="#9c3a30" stroke-width=".9" stroke-linecap="round"/></g></g></svg>