<svg xmlns="http://www.w3.org/2000/svg" viewBox="0 0 64 64"><defs><radialGradient id="indsvg6r0"><stop offset="0" stop-color="#8a6bc0" stop-opacity="0.65"/><stop offset="1" stop-color="#8a6bc0" stop-opacity="0"/></radialGradient><linearGradient id="indsvg6g1" x1="0" y1="0" x2="0" y2="1"><stop offset="0" stop-color="#4fb3a4"/><stop offset="1" stop-color="#1f5a57"/></linearGradient><linearGradient id="indsvg6g2" x1="0" y1="0" x2="0" y2="1"><stop offset="0" stop-color="#2f7f78"/><stop offset="1" stop-color="#1f5a57"/></linearGradient><linearGradient id="indsvg6g3" x1="0" y1="0" x2="0" y2="1"><stop offset="0" stop-color="#b39cce"/><stop offset="0.6" stop-color="#8a6bc0"/><stop offset="1" stop-color="#3b2a55"/></linearGradient></defs><circle cx="32" cy="30" r="26" fill="url(#indsvg6r0)"/><ellipse cx="32" cy="47" rx="27" ry="9.4" fill="#1f5a57" stroke="#141b21" stroke-width="1.6" stroke-linejoin="round" stroke-linecap="round"/><path d="M5 45Q32 66 59 45" fill="url(#indsvg6g1)" stroke="#141b21" stroke-width="1.6" stroke-linejoin="round" stroke-linecap="round"/><path d="M12 50q3 -4 6 0" fill="none" stroke="#8fd9c8" stroke-opacity=".7" stroke-width=".8"/><path d="M18.6 51.5q3 -4 6 0" fill="none" stroke="#8fd9c8" stroke-opacity=".7" stroke-width=".8"/><path d="M25.2 52.598076211353316q3 -4 6 0" fill="none" stroke="#8fd9c8" stroke-opacity=".7" stroke-width=".8"/><path d="M31.799999999999997 53q3 -4 6 0" fill="none" stroke="#8fd9c8" stroke-opacity=".7" stroke-width=".8"/><path d="M38.4 52.598076211353316q3 -4 6 0" fill="none" stroke="#8fd9c8" stroke-opacity=".7" stroke-width=".8"/><path d="M45 51.5q3 -4 6 0" fill="none" stroke="#8fd9c8" stroke-opacity=".7" stroke-width=".8"/><path d="M51.599999999999994 50q3 -4 6 0" fill="none" stroke="#8fd9c8" stroke-opacity=".7" stroke-width=".8"/><ellipse cx="32" cy="45" rx="23" ry="6.6" fill="url(#indsvg6g2)"/><ellipse cx="32" cy="45" rx="23" ry="6.6" fill="none" stroke="#d8b168" stroke-width=".8"/><ellipse cx="32" cy="44.6" rx="12" ry="3" fill="#000" fill-opacity=".3"/><circle cx="32" cy="32" r="13.5" fill="url(#indsvg6g3)" stroke="#141b21" stroke-width="1.6" stroke-linejoin="round" stroke-linecap="round"/><path d="M20 36a13 13 0 0 0 22 5a13 13 0 0 1 -22 -5z" fill="#3b2a55" fill-opacity=".6"/><path d="M26 31q3 -5 7 -1t7 -1M24 36q4 -3 8 0t8 0" fill="none" stroke="#c6b0f0" stroke-width="1.1" stroke-linecap="round"/><circle cx="32" cy="32" r="13.5" fill="none" stroke="#f0d596" stroke-opacity=".5" stroke-width=".6"/><ellipse cx="26.5" cy="26" rx="3.4" ry="2.2" fill="#fff" fill-opacity=".8"/><circle cx="37" cy="24" r="1" fill="#fff" fill-opacity=".7"/><path d="M14 17Q14 20 17 20Q14 20 14 23Q14 20 11 20Q14 20 14 17Z" fill="#d0c0d8"/><path d="M50 13Q50 16 53 16Q50 16 50 19Q50 16 47 16Q50 16 50 13Z" fill="#d0c0d8"/><path d="M52 27Q52 30 55 30Q52 30 52 33Q52 30 49 30Q52 30 52 27Z" fill="#d0c0d8"/></svg>